<svg width="102" height="22" viewBox="0 0 102 22" fill="none" xmlns="http://www.w3.org/2000/svg">
<path d="M1 0.5H101" stroke="#212121" stroke-linecap="round"/>
<path d="M20.0228 4.4H21.6068V10H20.0228V4.4ZM17.8628 10H16.2788V4.4H17.8628V10ZM20.1348 7.816H17.7508V6.504H20.1348V7.816ZM24.9241 10.072C24.4121 10.072 23.9641 9.976 23.5801 9.784C23.2014 9.58667 22.9054 9.32 22.6921 8.984C22.4841 8.64267 22.3801 8.256 22.3801 7.824C22.3801 7.392 22.4814 7.008 22.6841 6.672C22.8921 6.33067 23.1774 6.06667 23.5401 5.88C23.9027 5.688 24.3107 5.592 24.7641 5.592C25.1907 5.592 25.5801 5.68 25.9321 5.856C26.2841 6.02667 26.5641 6.28 26.7721 6.616C26.9801 6.952 27.0841 7.36 27.0841 7.84C27.0841 7.89333 27.0814 7.95467 27.0761 8.024C27.0707 8.09333 27.0654 8.15733 27.0601 8.216H23.6281V7.416H26.2521L25.6761 7.64C25.6814 7.44267 25.6441 7.272 25.5641 7.128C25.4894 6.984 25.3827 6.872 25.2441 6.792C25.1107 6.712 24.9534 6.672 24.7721 6.672C24.5907 6.672 24.4307 6.712 24.2921 6.792C24.1587 6.872 24.0547 6.98667 23.9801 7.136C23.9054 7.28 23.8681 7.45067 23.8681 7.648V7.88C23.8681 8.09333 23.9107 8.27733 23.9961 8.432C24.0867 8.58667 24.2147 8.70667 24.3801 8.792C24.5454 8.872 24.7427 8.912 24.9721 8.912C25.1854 8.912 25.3667 8.88267 25.5161 8.824C25.6707 8.76 25.8227 8.664 25.9721 8.536L26.7721 9.368C26.5641 9.59733 26.3081 9.77333 26.0041 9.896C25.7001 10.0133 25.3401 10.072 24.9241 10.072ZM30.3157 10V9.192L30.2117 8.992V7.504C30.2117 7.264 30.137 7.08 29.9877 6.952C29.8437 6.81867 29.6117 6.752 29.2917 6.752C29.0837 6.752 28.873 6.78667 28.6597 6.856C28.4464 6.92 28.265 7.01067 28.1157 7.128L27.6037 6.096C27.849 5.936 28.1424 5.81333 28.4837 5.728C28.8304 5.63733 29.1744 5.592 29.5157 5.592C30.2197 5.592 30.7637 5.75467 31.1477 6.08C31.537 6.4 31.7317 6.904 31.7317 7.592V10H30.3157ZM29.0357 10.072C28.689 10.072 28.3957 10.0133 28.1557 9.896C27.9157 9.77867 27.7317 9.61867 27.6037 9.416C27.481 9.21333 27.4197 8.98667 27.4197 8.736C27.4197 8.46933 27.4864 8.24 27.6197 8.048C27.7584 7.85067 27.969 7.70133 28.2517 7.6C28.5344 7.49333 28.8997 7.44 29.3477 7.44H30.3717V8.232H29.5557C29.3104 8.232 29.137 8.272 29.0357 8.352C28.9397 8.432 28.8917 8.53867 28.8917 8.672C28.8917 8.80533 28.9424 8.912 29.0437 8.992C29.145 9.072 29.2837 9.112 29.4597 9.112C29.625 9.112 29.7744 9.072 29.9077 8.992C30.0464 8.90667 30.1477 8.77867 30.2117 8.608L30.4197 9.168C30.3397 9.46667 30.1824 9.69333 29.9477 9.848C29.7184 9.99733 29.4144 10.072 29.0357 10.072ZM34.6338 10.072C34.2391 10.072 33.8791 9.98133 33.5538 9.8C33.2338 9.61333 32.9778 9.35467 32.7858 9.024C32.5938 8.688 32.4978 8.288 32.4978 7.824C32.4978 7.36533 32.5938 6.97067 32.7858 6.64C32.9778 6.304 33.2338 6.04533 33.5538 5.864C33.8791 5.68267 34.2391 5.592 34.6338 5.592C35.0071 5.592 35.3218 5.672 35.5778 5.832C35.8391 5.992 36.0365 6.23733 36.1698 6.568C36.3031 6.89867 36.3698 7.31733 36.3698 7.824C36.3698 8.34133 36.3058 8.76533 36.1778 9.096C36.0498 9.42667 35.8578 9.672 35.6018 9.832C35.3458 9.992 35.0231 10.072 34.6338 10.072ZM34.9538 8.864C35.1245 8.864 35.2765 8.824 35.4098 8.744C35.5485 8.664 35.6578 8.54667 35.7378 8.392C35.8178 8.232 35.8578 8.04267 35.8578 7.824C35.8578 7.60533 35.8178 7.42133 35.7378 7.272C35.6578 7.11733 35.5485 7 35.4098 6.92C35.2765 6.84 35.1245 6.8 34.9538 6.8C34.7778 6.8 34.6205 6.84 34.4818 6.92C34.3485 7 34.2418 7.11733 34.1618 7.272C34.0818 7.42133 34.0418 7.60533 34.0418 7.824C34.0418 8.04267 34.0818 8.232 34.1618 8.392C34.2418 8.54667 34.3485 8.664 34.4818 8.744C34.6205 8.824 34.7778 8.864 34.9538 8.864ZM35.9058 10V9.256L35.9138 7.824L35.8338 6.392V4.064H37.3538V10H35.9058ZM43.5559 10.112C43.1079 10.112 42.6945 10.04 42.3159 9.896C41.9372 9.752 41.6065 9.54933 41.3239 9.288C41.0465 9.02133 40.8305 8.712 40.6759 8.36C40.5212 8.008 40.4439 7.62133 40.4439 7.2C40.4439 6.77867 40.5212 6.392 40.6759 6.04C40.8305 5.688 41.0465 5.38133 41.3239 5.12C41.6065 4.85333 41.9372 4.648 42.3159 4.504C42.6945 4.36 43.1079 4.288 43.5559 4.288C44.0092 4.288 44.4225 4.36 44.7959 4.504C45.1745 4.648 45.5025 4.85333 45.7799 5.12C46.0572 5.38133 46.2732 5.688 46.4279 6.04C46.5879 6.392 46.6679 6.77867 46.6679 7.2C46.6679 7.62133 46.5879 8.01067 46.4279 8.368C46.2732 8.72 46.0572 9.02667 45.7799 9.288C45.5025 9.54933 45.1745 9.752 44.7959 9.896C44.4225 10.04 44.0092 10.112 43.5559 10.112ZM43.5559 8.8C43.7692 8.8 43.9665 8.76267 44.1479 8.688C44.3345 8.61333 44.4945 8.50667 44.6279 8.368C44.7665 8.224 44.8732 8.05333 44.9479 7.856C45.0279 7.65867 45.0679 7.44 45.0679 7.2C45.0679 6.95467 45.0279 6.736 44.9479 6.544C44.8732 6.34667 44.7665 6.17867 44.6279 6.04C44.4945 5.896 44.3345 5.78667 44.1479 5.712C43.9665 5.63733 43.7692 5.6 43.5559 5.6C43.3425 5.6 43.1425 5.63733 42.9559 5.712C42.7745 5.78667 42.6145 5.896 42.4759 6.04C42.3425 6.17867 42.2359 6.34667 42.1559 6.544C42.0812 6.736 42.0439 6.95467 42.0439 7.2C42.0439 7.44 42.0812 7.65867 42.1559 7.856C42.2359 8.05333 42.3425 8.224 42.4759 8.368C42.6145 8.50667 42.7745 8.61333 42.9559 8.688C43.1425 8.76267 43.3425 8.8 43.5559 8.8ZM47.6015 10V5.712C47.6015 5.18933 47.7562 4.77333 48.0655 4.464C48.3802 4.14933 48.8282 3.992 49.4095 3.992C49.5962 3.992 49.7802 4.01067 49.9615 4.048C50.1428 4.08533 50.2948 4.14133 50.4175 4.216L50.0415 5.288C49.9775 5.25067 49.9055 5.22133 49.8255 5.2C49.7455 5.17333 49.6655 5.16 49.5855 5.16C49.4255 5.16 49.3002 5.208 49.2095 5.304C49.1242 5.39467 49.0815 5.536 49.0815 5.728V6.04L49.1215 6.672V10H47.6015ZM46.9695 6.96V5.824H50.1135V6.96H46.9695ZM54.5476 6.856H57.1316V8.08H54.5476V6.856ZM54.6596 10H53.0756V4.4H57.4676V5.624H54.6596V10ZM58.1364 10V5.664H59.6564V10H58.1364ZM58.8964 5.184C58.6191 5.184 58.3951 5.10667 58.2244 4.952C58.0538 4.79733 57.9684 4.60533 57.9684 4.376C57.9684 4.14667 58.0538 3.95467 58.2244 3.8C58.3951 3.64533 58.6191 3.568 58.8964 3.568C59.1738 3.568 59.3978 3.64267 59.5684 3.792C59.7391 3.936 59.8244 4.12267 59.8244 4.352C59.8244 4.592 59.7391 4.792 59.5684 4.952C59.4031 5.10667 59.1791 5.184 58.8964 5.184ZM63.4683 5.592C63.8043 5.592 64.1083 5.66133 64.3802 5.8C64.6523 5.93333 64.8656 6.14133 65.0203 6.424C65.1803 6.70667 65.2603 7.072 65.2603 7.52V10H63.7403V7.768C63.7403 7.45867 63.6763 7.23467 63.5483 7.096C63.4256 6.952 63.2523 6.88 63.0283 6.88C62.8683 6.88 62.7216 6.91733 62.5883 6.992C62.4549 7.06133 62.3509 7.17067 62.2763 7.32C62.2016 7.46933 62.1643 7.664 62.1643 7.904V10H60.6443V5.664H62.0923V6.896L61.8123 6.536C61.9776 6.22133 62.2043 5.98667 62.4923 5.832C62.7803 5.672 63.1056 5.592 63.4683 5.592ZM68.8626 10V9.192L68.7586 8.992V7.504C68.7586 7.264 68.6839 7.08 68.5346 6.952C68.3906 6.81867 68.1586 6.752 67.8386 6.752C67.6306 6.752 67.4199 6.78667 67.2066 6.856C66.9932 6.92 66.8119 7.01067 66.6626 7.128L66.1506 6.096C66.3959 5.936 66.6892 5.81333 67.0306 5.728C67.3772 5.63733 67.7212 5.592 68.0626 5.592C68.7666 5.592 69.3106 5.75467 69.6946 6.08C70.0839 6.4 70.2786 6.904 70.2786 7.592V10H68.8626ZM67.5826 10.072C67.2359 10.072 66.9426 10.0133 66.7026 9.896C66.4626 9.77867 66.2786 9.61867 66.1506 9.416C66.0279 9.21333 65.9666 8.98667 65.9666 8.736C65.9666 8.46933 66.0332 8.24 66.1666 8.048C66.3052 7.85067 66.5159 7.70133 66.7986 7.6C67.0812 7.49333 67.4466 7.44 67.8946 7.44H68.9186V8.232H68.1026C67.8572 8.232 67.6839 8.272 67.5826 8.352C67.4866 8.432 67.4386 8.53867 67.4386 8.672C67.4386 8.80533 67.4892 8.912 67.5906 8.992C67.6919 9.072 67.8306 9.112 68.0066 9.112C68.1719 9.112 68.3212 9.072 68.4546 8.992C68.5932 8.90667 68.6946 8.77867 68.7586 8.608L68.9666 9.168C68.8866 9.46667 68.7292 9.69333 68.4946 9.848C68.2652 9.99733 67.9612 10.072 67.5826 10.072ZM74.062 5.592C74.398 5.592 74.702 5.66133 74.974 5.8C75.246 5.93333 75.4593 6.14133 75.614 6.424C75.774 6.70667 75.854 7.072 75.854 7.52V10H74.334V7.768C74.334 7.45867 74.27 7.23467 74.142 7.096C74.0193 6.952 73.846 6.88 73.622 6.88C73.462 6.88 73.3153 6.91733 73.182 6.992C73.0487 7.06133 72.9447 7.17067 72.87 7.32C72.7953 7.46933 72.758 7.664 72.758 7.904V10H71.238V5.664H72.686V6.896L72.406 6.536C72.5713 6.22133 72.798 5.98667 73.086 5.832C73.374 5.672 73.6993 5.592 74.062 5.592ZM79.079 10.072C78.599 10.072 78.1697 9.976 77.791 9.784C77.4177 9.592 77.1243 9.328 76.911 8.992C76.6977 8.65067 76.591 8.26133 76.591 7.824C76.591 7.38667 76.6977 7 76.911 6.664C77.1243 6.328 77.4177 6.06667 77.791 5.88C78.1697 5.688 78.599 5.592 79.079 5.592C79.5697 5.592 79.9937 5.696 80.351 5.904C80.7083 6.112 80.9617 6.40533 81.111 6.784L79.935 7.384C79.8337 7.18133 79.7083 7.03467 79.559 6.944C79.4097 6.848 79.247 6.8 79.071 6.8C78.895 6.8 78.735 6.84 78.591 6.92C78.447 7 78.3323 7.11733 78.247 7.272C78.167 7.42133 78.127 7.60533 78.127 7.824C78.127 8.048 78.167 8.23733 78.247 8.392C78.3323 8.54667 78.447 8.664 78.591 8.744C78.735 8.824 78.895 8.864 79.071 8.864C79.247 8.864 79.4097 8.81867 79.559 8.728C79.7083 8.632 79.8337 8.48267 79.935 8.28L81.111 8.88C80.9617 9.25867 80.7083 9.552 80.351 9.76C79.9937 9.968 79.5697 10.072 79.079 10.072ZM83.9084 10.072C83.3964 10.072 82.9484 9.976 82.5644 9.784C82.1858 9.58667 81.8898 9.32 81.6764 8.984C81.4684 8.64267 81.3644 8.256 81.3644 7.824C81.3644 7.392 81.4658 7.008 81.6684 6.672C81.8764 6.33067 82.1618 6.06667 82.5244 5.88C82.8871 5.688 83.2951 5.592 83.7484 5.592C84.1751 5.592 84.5644 5.68 84.9164 5.856C85.2684 6.02667 85.5484 6.28 85.7564 6.616C85.9644 6.952 86.0684 7.36 86.0684 7.84C86.0684 7.89333 86.0658 7.95467 86.0604 8.024C86.0551 8.09333 86.0498 8.15733 86.0444 8.216H82.6124V7.416H85.2364L84.6604 7.64C84.6658 7.44267 84.6284 7.272 84.5484 7.128C84.4738 6.984 84.3671 6.872 84.2284 6.792C84.0951 6.712 83.9378 6.672 83.7564 6.672C83.5751 6.672 83.4151 6.712 83.2764 6.792C83.1431 6.872 83.0391 6.98667 82.9644 7.136C82.8898 7.28 82.8524 7.45067 82.8524 7.648V7.88C82.8524 8.09333 82.8951 8.27733 82.9804 8.432C83.0711 8.58667 83.1991 8.70667 83.3644 8.792C83.5298 8.872 83.7271 8.912 83.9564 8.912C84.1698 8.912 84.3511 8.88267 84.5004 8.824C84.6551 8.76 84.8071 8.664 84.9564 8.536L85.7564 9.368C85.5484 9.59733 85.2924 9.77333 84.9884 9.896C84.6844 10.0133 84.3244 10.072 83.9084 10.072Z" fill="#212121"/>
<path d="M15.7188 11H86.2844V11.4H15.7188V11Z" fill="#212121"/>
<path d="M29.4906 19.03C29.3426 19.03 29.2366 18.998 29.1726 18.934C29.1086 18.866 29.0766 18.74 29.0766 18.556C29.0766 18.432 29.0886 18.282 29.1126 18.106C29.1366 17.93 29.1786 17.664 29.2386 17.308C29.2466 17.26 29.2786 17.066 29.3346 16.726C29.3906 16.382 29.4406 16.022 29.4846 15.646C29.5246 15.326 29.5446 15.086 29.5446 14.926C29.5446 14.746 29.4786 14.656 29.3466 14.656C29.2466 14.656 29.1206 14.71 28.9686 14.818C28.8206 14.922 28.6606 15.09 28.4886 15.322C28.4326 15.398 28.3706 15.436 28.3026 15.436C28.2466 15.436 28.1966 15.41 28.1526 15.358C28.1126 15.302 28.0926 15.24 28.0926 15.172C28.0926 15.104 28.1046 15.04 28.1286 14.98C28.1526 14.916 28.1966 14.84 28.2606 14.752C28.4566 14.484 28.6746 14.278 28.9146 14.134C29.1546 13.986 29.4066 13.912 29.6706 13.912C29.8906 13.912 30.0546 13.98 30.1626 14.116C30.2746 14.252 30.3306 14.45 30.3306 14.71C30.3306 14.942 30.2986 15.278 30.2346 15.718C30.4346 15.126 30.6886 14.678 30.9966 14.374C31.3046 14.066 31.6666 13.912 32.0826 13.912C32.4106 13.912 32.6566 14.006 32.8206 14.194C32.9886 14.378 33.0726 14.626 33.0726 14.938C33.0726 15.114 33.0466 15.328 32.9946 15.58L32.6286 17.296C32.5886 17.496 32.5686 17.668 32.5686 17.812C32.5686 17.98 32.6066 18.106 32.6826 18.19C32.7626 18.274 32.8726 18.316 33.0126 18.316C33.1446 18.316 33.2726 18.272 33.3966 18.184C33.5246 18.096 33.6746 17.95 33.8466 17.746C33.8946 17.69 33.9486 17.662 34.0086 17.662C34.0606 17.662 34.1006 17.686 34.1286 17.734C34.1606 17.782 34.1766 17.848 34.1766 17.932C34.1766 18.088 34.1386 18.212 34.0626 18.304C33.8546 18.556 33.6486 18.74 33.4446 18.856C33.2406 18.972 33.0266 19.03 32.8026 19.03C32.4626 19.03 32.1966 18.93 32.0046 18.73C31.8126 18.526 31.7166 18.254 31.7166 17.914C31.7166 17.782 31.7266 17.638 31.7466 17.482C31.7706 17.326 31.8086 17.128 31.8606 16.888L32.1006 15.79C32.1086 15.754 32.1226 15.69 32.1426 15.598C32.1626 15.506 32.1786 15.42 32.1906 15.34C32.2026 15.256 32.2086 15.174 32.2086 15.094C32.2086 14.966 32.1726 14.864 32.1006 14.788C32.0286 14.712 31.9266 14.674 31.7946 14.674C31.5546 14.674 31.3146 14.802 31.0746 15.058C30.8346 15.314 30.6126 15.728 30.4086 16.3C30.2046 16.868 30.0446 17.596 29.9286 18.484C29.9006 18.688 29.8586 18.83 29.8026 18.91C29.7506 18.99 29.6466 19.03 29.4906 19.03ZM34.4754 15.808C34.3074 15.808 34.1814 15.77 34.0974 15.694C34.0134 15.614 33.9714 15.504 33.9714 15.364C33.9714 15.224 34.0254 15.108 34.1334 15.016C34.2454 14.92 34.3834 14.872 34.5474 14.872C34.6954 14.872 34.8154 14.908 34.9074 14.98C34.9994 15.052 35.0454 15.154 35.0454 15.286C35.0454 15.446 34.9934 15.574 34.8894 15.67C34.7854 15.762 34.6474 15.808 34.4754 15.808ZM34.4274 19.03C34.1674 19.03 33.9774 18.938 33.8574 18.754C33.7414 18.57 33.6834 18.326 33.6834 18.022C33.6834 17.842 33.7054 17.612 33.7494 17.332C33.7974 17.048 33.8574 16.784 33.9294 16.54C33.9654 16.412 34.0134 16.324 34.0734 16.276C34.1334 16.228 34.2294 16.204 34.3614 16.204C34.5654 16.204 34.6674 16.272 34.6674 16.408C34.6674 16.508 34.6294 16.74 34.5534 17.104C34.4574 17.544 34.4094 17.842 34.4094 17.998C34.4094 18.118 34.4254 18.21 34.4574 18.274C34.4894 18.338 34.5434 18.37 34.6194 18.37C34.6914 18.37 34.7814 18.32 34.8894 18.22C34.9974 18.12 35.1414 17.962 35.3214 17.746C35.3694 17.69 35.4234 17.662 35.4834 17.662C35.5354 17.662 35.5754 17.686 35.6034 17.734C35.6354 17.782 35.6514 17.848 35.6514 17.932C35.6514 18.092 35.6134 18.216 35.5374 18.304C35.1414 18.788 34.7714 19.03 34.4274 19.03ZM36.2819 19.162C36.0739 19.162 35.9139 19.114 35.8019 19.018C35.6939 18.922 35.6399 18.814 35.6399 18.694C35.6399 18.59 35.6779 18.5 35.7539 18.424C35.8299 18.348 35.9419 18.31 36.0899 18.31C36.1419 18.31 36.2019 18.316 36.2699 18.328C36.3419 18.336 36.3959 18.342 36.4319 18.346C36.4279 18.242 36.4039 18.144 36.3599 18.052C36.3199 17.96 36.2679 17.872 36.2039 17.788C36.1399 17.7 36.0799 17.624 36.0239 17.56C35.8999 17.796 35.7759 17.992 35.6519 18.148C35.5319 18.304 35.3999 18.452 35.2559 18.592C35.1839 18.664 35.1079 18.7 35.0279 18.7C34.9639 18.7 34.9119 18.678 34.8719 18.634C34.8319 18.586 34.8119 18.528 34.8119 18.46C34.8119 18.38 34.8399 18.306 34.8959 18.238L34.9739 18.142C35.1939 17.87 35.3599 17.646 35.4719 17.47C35.5399 17.354 35.6199 17.2 35.7119 17.008C35.8039 16.812 35.8939 16.61 35.9819 16.402C36.0579 16.226 36.2159 16.138 36.4559 16.138C36.5679 16.138 36.6459 16.148 36.6899 16.168C36.7339 16.188 36.7559 16.22 36.7559 16.264C36.7559 16.288 36.7479 16.326 36.7319 16.378C36.7159 16.43 36.6939 16.482 36.6659 16.534C36.5939 16.678 36.5579 16.8 36.5579 16.9C36.5579 16.96 36.5779 17.026 36.6179 17.098C36.6619 17.17 36.7279 17.26 36.8159 17.368C36.9439 17.536 37.0399 17.68 37.1039 17.8C37.1719 17.916 37.2059 18.044 37.2059 18.184C37.2059 18.224 37.2019 18.28 37.1939 18.352C37.3899 18.276 37.6199 18.074 37.8839 17.746C37.9319 17.69 37.9859 17.662 38.0459 17.662C38.0979 17.662 38.1379 17.686 38.1659 17.734C38.1979 17.782 38.2139 17.848 38.2139 17.932C38.2139 18.084 38.1759 18.208 38.0999 18.304C37.8999 18.552 37.7079 18.722 37.5239 18.814C37.3439 18.902 37.1199 18.95 36.8519 18.958C36.6919 19.094 36.5019 19.162 36.2819 19.162ZM38.8725 19.03C38.4805 19.03 38.1745 18.92 37.9545 18.7C37.7385 18.476 37.6305 18.182 37.6305 17.818C37.6305 17.494 37.6945 17.21 37.8225 16.966C37.9505 16.722 38.1165 16.534 38.3205 16.402C38.5245 16.27 38.7385 16.204 38.9625 16.204C39.1825 16.204 39.3525 16.27 39.4725 16.402C39.5965 16.53 39.6585 16.696 39.6585 16.9C39.6585 17.068 39.6205 17.21 39.5445 17.326C39.4725 17.442 39.3765 17.5 39.2565 17.5C39.1805 17.5 39.1185 17.482 39.0705 17.446C39.0265 17.41 39.0045 17.36 39.0045 17.296C39.0045 17.268 39.0085 17.236 39.0165 17.2C39.0245 17.164 39.0305 17.138 39.0345 17.122C39.0545 17.062 39.0645 17.006 39.0645 16.954C39.0645 16.902 39.0505 16.862 39.0225 16.834C38.9985 16.806 38.9625 16.792 38.9145 16.792C38.8225 16.792 38.7365 16.834 38.6565 16.918C38.5765 16.998 38.5125 17.108 38.4645 17.248C38.4165 17.388 38.3925 17.542 38.3925 17.71C38.3925 18.174 38.5945 18.406 38.9985 18.406C39.1625 18.406 39.3385 18.352 39.5265 18.244C39.7185 18.132 39.9065 17.966 40.0905 17.746C40.1385 17.69 40.1925 17.662 40.2525 17.662C40.3045 17.662 40.3445 17.686 40.3725 17.734C40.4045 17.782 40.4205 17.848 40.4205 17.932C40.4205 18.084 40.3825 18.208 40.3065 18.304C40.1185 18.536 39.8925 18.716 39.6285 18.844C39.3685 18.968 39.1165 19.03 38.8725 19.03ZM43.2655 17.662C43.3175 17.662 43.3575 17.686 43.3855 17.734C43.4175 17.782 43.4335 17.848 43.4335 17.932C43.4335 18.092 43.3955 18.216 43.3195 18.304C43.1355 18.516 42.9455 18.69 42.7495 18.826C42.5575 18.962 42.3375 19.03 42.0895 19.03C41.8855 19.03 41.7315 18.972 41.6275 18.856C41.5235 18.736 41.4715 18.564 41.4715 18.34C41.4715 18.228 41.4995 18.028 41.5555 17.74C41.6075 17.488 41.6335 17.314 41.6335 17.218C41.6335 17.154 41.6115 17.122 41.5675 17.122C41.5155 17.122 41.4415 17.19 41.3455 17.326C41.2495 17.458 41.1535 17.634 41.0575 17.854C40.9615 18.074 40.8835 18.306 40.8235 18.55C40.7475 18.87 40.5595 19.03 40.2595 19.03C40.1395 19.03 40.0595 18.988 40.0195 18.904C39.9835 18.816 39.9655 18.66 39.9655 18.436C39.9655 18.308 39.9675 18.206 39.9715 18.13L39.9775 17.65C39.9775 17.034 40.0395 16.392 40.1635 15.724C40.2915 15.056 40.4775 14.496 40.7215 14.044C40.9695 13.588 41.2655 13.36 41.6095 13.36C41.7935 13.36 41.9415 13.44 42.0535 13.6C42.1695 13.756 42.2275 13.96 42.2275 14.212C42.2275 14.616 42.1095 15.036 41.8735 15.472C41.6375 15.904 41.2535 16.41 40.7215 16.99C40.7095 17.198 40.7035 17.412 40.7035 17.632C40.8355 17.292 40.9815 17.016 41.1415 16.804C41.3055 16.588 41.4655 16.434 41.6215 16.342C41.7815 16.25 41.9275 16.204 42.0595 16.204C42.3195 16.204 42.4495 16.334 42.4495 16.594C42.4495 16.75 42.4055 17.032 42.3175 17.44C42.2415 17.788 42.2035 18.018 42.2035 18.13C42.2035 18.29 42.2615 18.37 42.3775 18.37C42.4575 18.37 42.5515 18.322 42.6595 18.226C42.7715 18.126 42.9195 17.966 43.1035 17.746C43.1515 17.69 43.2055 17.662 43.2655 17.662ZM41.4835 13.954C41.4115 13.954 41.3315 14.058 41.2435 14.266C41.1555 14.47 41.0695 14.748 40.9855 15.1C40.9055 15.448 40.8395 15.828 40.7875 16.24C41.0355 15.948 41.2395 15.63 41.3995 15.286C41.5635 14.942 41.6455 14.63 41.6455 14.35C41.6455 14.222 41.6315 14.124 41.6035 14.056C41.5755 13.988 41.5355 13.954 41.4835 13.954ZM43.6852 19.03C43.4372 19.03 43.2392 18.94 43.0912 18.76C42.9432 18.58 42.8692 18.344 42.8692 18.052C42.8692 17.732 42.9432 17.43 43.0912 17.146C43.2392 16.858 43.4352 16.628 43.6792 16.456C43.9272 16.28 44.1892 16.192 44.4652 16.192C44.5532 16.192 44.6112 16.21 44.6392 16.246C44.6712 16.278 44.6972 16.338 44.7172 16.426C44.8012 16.41 44.8892 16.402 44.9812 16.402C45.1772 16.402 45.2752 16.472 45.2752 16.612C45.2752 16.696 45.2452 16.896 45.1852 17.212C45.0932 17.672 45.0472 17.992 45.0472 18.172C45.0472 18.232 45.0612 18.28 45.0892 18.316C45.1212 18.352 45.1612 18.37 45.2092 18.37C45.2852 18.37 45.3772 18.322 45.4852 18.226C45.5932 18.126 45.7392 17.966 45.9232 17.746C45.9712 17.69 46.0252 17.662 46.0852 17.662C46.1372 17.662 46.1772 17.686 46.2052 17.734C46.2372 17.782 46.2532 17.848 46.2532 17.932C46.2532 18.092 46.2152 18.216 46.1392 18.304C45.9752 18.508 45.8012 18.68 45.6172 18.82C45.4332 18.96 45.2552 19.03 45.0832 19.03C44.9512 19.03 44.8292 18.986 44.7172 18.898C44.6092 18.806 44.5272 18.682 44.4712 18.526C44.2632 18.862 44.0012 19.03 43.6852 19.03ZM43.9012 18.424C43.9892 18.424 44.0732 18.372 44.1532 18.268C44.2332 18.164 44.2912 18.026 44.3272 17.854L44.5492 16.75C44.3812 16.754 44.2252 16.818 44.0812 16.942C43.9412 17.062 43.8292 17.222 43.7452 17.422C43.6612 17.622 43.6192 17.834 43.6192 18.058C43.6192 18.182 43.6432 18.274 43.6912 18.334C43.7432 18.394 43.8132 18.424 43.9012 18.424ZM47.4995 18.154C47.5435 18.114 47.5875 18.094 47.6315 18.094C47.6795 18.094 47.7175 18.122 47.7455 18.178C47.7775 18.23 47.7935 18.294 47.7935 18.37C47.7935 18.538 47.7335 18.672 47.6135 18.772C47.4055 18.944 47.1695 19.03 46.9055 19.03C46.5255 19.03 46.2475 18.872 46.0715 18.556C45.8955 18.236 45.8075 17.82 45.8075 17.308C45.8075 16.82 45.8695 16.264 45.9935 15.64C46.1215 15.016 46.3075 14.48 46.5515 14.032C46.7995 13.584 47.0935 13.36 47.4335 13.36C47.6255 13.36 47.7755 13.45 47.8835 13.63C47.9955 13.806 48.0515 14.06 48.0515 14.392C48.0515 14.868 47.9195 15.42 47.6555 16.048C47.3955 16.676 47.0395 17.296 46.5875 17.908C46.6155 18.072 46.6655 18.19 46.7375 18.262C46.8095 18.334 46.9075 18.37 47.0315 18.37C47.0995 18.37 47.1755 18.35 47.2595 18.31C47.3475 18.27 47.4275 18.218 47.4995 18.154ZM47.3015 13.954C47.2095 13.954 47.1055 14.12 46.9895 14.452C46.8735 14.784 46.7715 15.196 46.6835 15.688C46.5955 16.18 46.5475 16.652 46.5395 17.104C46.8235 16.636 47.0495 16.168 47.2175 15.7C47.3855 15.228 47.4695 14.798 47.4695 14.41C47.4695 14.106 47.4135 13.954 47.3015 13.954ZM55.5024 17.662C55.5544 17.662 55.5944 17.686 55.6224 17.734C55.6544 17.782 55.6704 17.848 55.6704 17.932C55.6704 18.088 55.6324 18.212 55.5564 18.304C55.3644 18.536 55.1704 18.716 54.9744 18.844C54.7784 18.968 54.5464 19.03 54.2784 19.03C53.9824 19.03 53.7404 18.944 53.5524 18.772C53.3644 18.596 53.1884 18.324 53.0244 17.956C52.9044 17.692 52.8044 17.496 52.7244 17.368C52.6484 17.236 52.5724 17.144 52.4964 17.092C52.4204 17.036 52.3244 17.002 52.2084 16.99L52.1424 17.434C52.0584 18.006 51.8944 18.418 51.6504 18.67C51.4104 18.922 51.0784 19.048 50.6544 19.048C50.3784 19.048 50.1324 18.982 49.9164 18.85C49.7044 18.714 49.5564 18.542 49.4724 18.334C49.4444 18.262 49.4304 18.184 49.4304 18.1C49.4304 17.98 49.4584 17.876 49.5144 17.788C49.5704 17.7 49.6424 17.656 49.7304 17.656C49.7824 17.656 49.8264 17.67 49.8624 17.698C49.8984 17.722 49.9324 17.766 49.9644 17.83C50.0884 18.062 50.1964 18.224 50.2884 18.316C50.3844 18.408 50.5024 18.454 50.6424 18.454C50.8024 18.454 50.9384 18.382 51.0504 18.238C51.1664 18.09 51.2484 17.864 51.2964 17.56L51.3804 16.99H51.2844C51.1924 16.99 51.1204 16.964 51.0684 16.912C51.0164 16.86 50.9904 16.788 50.9904 16.696C50.9904 16.592 51.0164 16.51 51.0684 16.45C51.1244 16.386 51.1924 16.354 51.2724 16.354H51.4704C51.4984 16.158 51.5184 16.022 51.5304 15.946L51.7164 14.596C51.6124 14.584 51.5144 14.578 51.4224 14.578C51.0824 14.578 50.8244 14.638 50.6484 14.758C50.4724 14.874 50.3844 15.042 50.3844 15.262C50.3844 15.362 50.3944 15.444 50.4144 15.508C50.4384 15.568 50.4684 15.636 50.5044 15.712C50.5204 15.744 50.5284 15.78 50.5284 15.82C50.5284 15.908 50.4864 15.986 50.4024 16.054C50.3224 16.118 50.2324 16.15 50.1324 16.15C50.0044 16.15 49.9104 16.094 49.8504 15.982C49.7304 15.77 49.6704 15.542 49.6704 15.298C49.6704 15.046 49.7384 14.816 49.8744 14.608C50.0144 14.4 50.2244 14.234 50.5044 14.11C50.7844 13.982 51.1304 13.918 51.5424 13.918C51.7224 13.918 51.8864 13.928 52.0344 13.948C52.1864 13.968 52.3524 14.006 52.5324 14.062C52.7284 14.122 52.8264 14.234 52.8264 14.398C52.8264 14.618 52.7324 14.728 52.5444 14.728L52.3104 16.342C52.7784 16.294 53.1584 16.094 53.4504 15.742C53.7464 15.386 53.9924 14.904 54.1884 14.296C54.2244 14.184 54.2844 14.098 54.3684 14.038C54.4564 13.978 54.5664 13.948 54.6984 13.948C54.8104 13.948 54.8964 13.974 54.9564 14.026C55.0204 14.074 55.0524 14.144 55.0524 14.236C55.0524 14.264 55.0444 14.31 55.0284 14.374C54.8284 15.034 54.5424 15.558 54.1704 15.946C53.7984 16.334 53.3924 16.592 52.9524 16.72C53.1044 16.756 53.2284 16.81 53.3244 16.882C53.4244 16.954 53.5084 17.044 53.5764 17.152C53.6444 17.256 53.7224 17.402 53.8104 17.59C53.9344 17.854 54.0504 18.042 54.1584 18.154C54.2664 18.262 54.3924 18.316 54.5364 18.316C54.6644 18.316 54.7864 18.274 54.9024 18.19C55.0184 18.102 55.1644 17.954 55.3404 17.746C55.3884 17.69 55.4424 17.662 55.5024 17.662ZM55.8024 19.03C55.5544 19.03 55.3564 18.94 55.2084 18.76C55.0604 18.58 54.9864 18.344 54.9864 18.052C54.9864 17.732 55.0604 17.43 55.2084 17.146C55.3564 16.858 55.5524 16.628 55.7964 16.456C56.0444 16.28 56.3064 16.192 56.5824 16.192C56.6704 16.192 56.7284 16.21 56.7564 16.246C56.7884 16.278 56.8144 16.338 56.8344 16.426C56.9184 16.41 57.0064 16.402 57.0984 16.402C57.2944 16.402 57.3924 16.472 57.3924 16.612C57.3924 16.696 57.3624 16.896 57.3024 17.212C57.2104 17.672 57.1644 17.992 57.1644 18.172C57.1644 18.232 57.1784 18.28 57.2064 18.316C57.2384 18.352 57.2784 18.37 57.3264 18.37C57.4024 18.37 57.4944 18.322 57.6024 18.226C57.7104 18.126 57.8564 17.966 58.0404 17.746C58.0884 17.69 58.1424 17.662 58.2024 17.662C58.2544 17.662 58.2944 17.686 58.3224 17.734C58.3544 17.782 58.3704 17.848 58.3704 17.932C58.3704 18.092 58.3324 18.216 58.2564 18.304C58.0924 18.508 57.9184 18.68 57.7344 18.82C57.5504 18.96 57.3724 19.03 57.2004 19.03C57.0684 19.03 56.9464 18.986 56.8344 18.898C56.7264 18.806 56.6444 18.682 56.5884 18.526C56.3804 18.862 56.1184 19.03 55.8024 19.03ZM56.0184 18.424C56.1064 18.424 56.1904 18.372 56.2704 18.268C56.3504 18.164 56.4084 18.026 56.4444 17.854L56.6664 16.75C56.4984 16.754 56.3424 16.818 56.1984 16.942C56.0584 17.062 55.9464 17.222 55.8624 17.422C55.7784 17.622 55.7364 17.834 55.7364 18.058C55.7364 18.182 55.7604 18.274 55.8084 18.334C55.8604 18.394 55.9304 18.424 56.0184 18.424ZM60.9547 17.674C61.0067 17.674 61.0467 17.7 61.0747 17.752C61.1067 17.8 61.1227 17.862 61.1227 17.938C61.1227 18.03 61.1087 18.102 61.0807 18.154C61.0527 18.206 61.0087 18.252 60.9487 18.292L59.7967 19.066C59.6447 19.894 59.4447 20.544 59.1967 21.016C58.9527 21.492 58.6407 21.73 58.2607 21.73C58.0567 21.73 57.8907 21.666 57.7627 21.538C57.6347 21.414 57.5707 21.25 57.5707 21.046C57.5707 20.858 57.6127 20.666 57.6967 20.47C57.7847 20.274 57.9447 20.048 58.1767 19.792C58.4127 19.54 58.7447 19.25 59.1727 18.922L59.1907 18.784C59.2187 18.636 59.2507 18.424 59.2867 18.148C59.2067 18.436 59.0947 18.656 58.9507 18.808C58.8067 18.956 58.6547 19.03 58.4947 19.03C58.3147 19.03 58.1667 18.948 58.0507 18.784C57.9387 18.616 57.8827 18.408 57.8827 18.16C57.8827 17.86 57.9027 17.586 57.9427 17.338C57.9827 17.086 58.0487 16.82 58.1407 16.54C58.1807 16.42 58.2367 16.334 58.3087 16.282C58.3807 16.23 58.4947 16.204 58.6507 16.204C58.7387 16.204 58.7987 16.218 58.8307 16.246C58.8667 16.274 58.8847 16.316 58.8847 16.372C58.8847 16.404 58.8627 16.512 58.8187 16.696C58.7787 16.844 58.7467 16.978 58.7227 17.098C58.6907 17.262 58.6627 17.42 58.6387 17.572C58.6147 17.72 58.6027 17.842 58.6027 17.938C58.6027 18.09 58.6447 18.166 58.7287 18.166C58.7887 18.166 58.8627 18.106 58.9507 17.986C59.0427 17.866 59.1387 17.684 59.2387 17.44C59.3427 17.196 59.4427 16.896 59.5387 16.54C59.5707 16.42 59.6187 16.334 59.6827 16.282C59.7507 16.23 59.8507 16.204 59.9827 16.204C60.0747 16.204 60.1387 16.216 60.1747 16.24C60.2107 16.264 60.2287 16.304 60.2287 16.36C60.2287 16.46 60.1767 16.804 60.0727 17.392L59.9167 18.358C60.2247 18.126 60.5247 17.914 60.8167 17.722C60.8687 17.69 60.9147 17.674 60.9547 17.674ZM58.3267 21.148C58.4267 21.148 58.5387 21.032 58.6627 20.8C58.7867 20.568 58.9107 20.182 59.0347 19.642C58.7267 19.902 58.5027 20.138 58.3627 20.35C58.2267 20.566 58.1587 20.754 58.1587 20.914C58.1587 20.982 58.1707 21.038 58.1947 21.082C58.2227 21.126 58.2667 21.148 58.3267 21.148ZM61.4332 19.03C61.1852 19.03 60.9872 18.94 60.8392 18.76C60.6912 18.58 60.6172 18.344 60.6172 18.052C60.6172 17.732 60.6912 17.43 60.8392 17.146C60.9872 16.858 61.1832 16.628 61.4272 16.456C61.6752 16.28 61.9372 16.192 62.2132 16.192C62.3012 16.192 62.3592 16.21 62.3872 16.246C62.4192 16.278 62.4452 16.338 62.4652 16.426C62.5492 16.41 62.6372 16.402 62.7292 16.402C62.9252 16.402 63.0232 16.472 63.0232 16.612C63.0232 16.696 62.9932 16.896 62.9332 17.212C62.8412 17.672 62.7952 17.992 62.7952 18.172C62.7952 18.232 62.8092 18.28 62.8372 18.316C62.8692 18.352 62.9092 18.37 62.9572 18.37C63.0332 18.37 63.1252 18.322 63.2332 18.226C63.3412 18.126 63.4872 17.966 63.6712 17.746C63.7192 17.69 63.7732 17.662 63.8332 17.662C63.8852 17.662 63.9252 17.686 63.9532 17.734C63.9852 17.782 64.0012 17.848 64.0012 17.932C64.0012 18.092 63.9632 18.216 63.8872 18.304C63.7232 18.508 63.5492 18.68 63.3652 18.82C63.1812 18.96 63.0032 19.03 62.8312 19.03C62.6992 19.03 62.5772 18.986 62.4652 18.898C62.3572 18.806 62.2752 18.682 62.2192 18.526C62.0112 18.862 61.7492 19.03 61.4332 19.03ZM61.6492 18.424C61.7372 18.424 61.8212 18.372 61.9012 18.268C61.9812 18.164 62.0392 18.026 62.0752 17.854L62.2972 16.75C62.1292 16.754 61.9732 16.818 61.8292 16.942C61.6892 17.062 61.5772 17.222 61.4932 17.422C61.4092 17.622 61.3672 17.834 61.3672 18.058C61.3672 18.182 61.3912 18.274 61.4392 18.334C61.4912 18.394 61.5612 18.424 61.6492 18.424ZM64.6296 19.162C64.4216 19.162 64.2616 19.114 64.1496 19.018C64.0416 18.922 63.9876 18.814 63.9876 18.694C63.9876 18.59 64.0256 18.5 64.1016 18.424C64.1776 18.348 64.2896 18.31 64.4376 18.31C64.4896 18.31 64.5496 18.316 64.6176 18.328C64.6896 18.336 64.7436 18.342 64.7796 18.346C64.7756 18.242 64.7516 18.144 64.7076 18.052C64.6676 17.96 64.6156 17.872 64.5516 17.788C64.4876 17.7 64.4276 17.624 64.3716 17.56C64.2476 17.796 64.1236 17.992 63.9996 18.148C63.8796 18.304 63.7476 18.452 63.6036 18.592C63.5316 18.664 63.4556 18.7 63.3756 18.7C63.3116 18.7 63.2596 18.678 63.2196 18.634C63.1796 18.586 63.1596 18.528 63.1596 18.46C63.1596 18.38 63.1876 18.306 63.2436 18.238L63.3216 18.142C63.5416 17.87 63.7076 17.646 63.8196 17.47C63.8876 17.354 63.9676 17.2 64.0596 17.008C64.1516 16.812 64.2416 16.61 64.3296 16.402C64.4056 16.226 64.5636 16.138 64.8036 16.138C64.9156 16.138 64.9936 16.148 65.0376 16.168C65.0816 16.188 65.1036 16.22 65.1036 16.264C65.1036 16.288 65.0956 16.326 65.0796 16.378C65.0636 16.43 65.0416 16.482 65.0136 16.534C64.9416 16.678 64.9056 16.8 64.9056 16.9C64.9056 16.96 64.9256 17.026 64.9656 17.098C65.0096 17.17 65.0756 17.26 65.1636 17.368C65.2916 17.536 65.3876 17.68 65.4516 17.8C65.5196 17.916 65.5536 18.044 65.5536 18.184C65.5536 18.224 65.5496 18.28 65.5416 18.352C65.7376 18.276 65.9676 18.074 66.2316 17.746C66.2796 17.69 66.3336 17.662 66.3936 17.662C66.4456 17.662 66.4856 17.686 66.5136 17.734C66.5456 17.782 66.5616 17.848 66.5616 17.932C66.5616 18.084 66.5236 18.208 66.4476 18.304C66.2476 18.552 66.0556 18.722 65.8716 18.814C65.6916 18.902 65.4676 18.95 65.1996 18.958C65.0396 19.094 64.8496 19.162 64.6296 19.162ZM68.7501 17.662C68.8021 17.662 68.8421 17.686 68.8701 17.734C68.9021 17.782 68.9181 17.848 68.9181 17.932C68.9181 18.092 68.8801 18.216 68.8041 18.304C68.6321 18.516 68.4441 18.69 68.2401 18.826C68.0361 18.962 67.8021 19.03 67.5381 19.03C66.7221 19.03 66.3141 18.456 66.3141 17.308C66.3141 17.132 66.3201 16.954 66.3321 16.774H66.0981C65.9781 16.774 65.8961 16.752 65.8521 16.708C65.8121 16.664 65.7921 16.594 65.7921 16.498C65.7921 16.274 65.8821 16.162 66.0621 16.162H66.4041C66.4721 15.722 66.5761 15.32 66.7161 14.956C66.8561 14.592 67.0241 14.302 67.2201 14.086C67.4201 13.87 67.6341 13.762 67.8621 13.762C68.0301 13.762 68.1621 13.836 68.2581 13.984C68.3541 14.132 68.4021 14.318 68.4021 14.542C68.4021 15.162 68.1421 15.702 67.6221 16.162H68.2941C68.3581 16.162 68.4041 16.176 68.4321 16.204C68.4601 16.232 68.4741 16.284 68.4741 16.36C68.4741 16.636 68.2481 16.774 67.7961 16.774H67.0641C67.0561 16.974 67.0521 17.13 67.0521 17.242C67.0521 17.658 67.1001 17.95 67.1961 18.118C67.2961 18.286 67.4521 18.37 67.6641 18.37C67.8361 18.37 67.9881 18.318 68.1201 18.214C68.2521 18.11 68.4081 17.954 68.5881 17.746C68.6361 17.69 68.6901 17.662 68.7501 17.662ZM67.7001 14.338C67.6401 14.338 67.5721 14.414 67.4961 14.566C67.4241 14.714 67.3541 14.922 67.2861 15.19C67.2221 15.454 67.1681 15.748 67.1241 16.072C67.3601 15.868 67.5361 15.64 67.6521 15.388C67.7721 15.132 67.8321 14.9 67.8321 14.692C67.8321 14.456 67.7881 14.338 67.7001 14.338ZM71.7596 17.662C71.8116 17.662 71.8516 17.686 71.8796 17.734C71.9116 17.782 71.9276 17.848 71.9276 17.932C71.9276 18.092 71.8896 18.216 71.8136 18.304C71.6296 18.516 71.4396 18.69 71.2436 18.826C71.0516 18.962 70.8316 19.03 70.5836 19.03C70.3796 19.03 70.2256 18.972 70.1216 18.856C70.0176 18.736 69.9656 18.564 69.9656 18.34C69.9656 18.228 69.9936 18.028 70.0496 17.74C70.1016 17.488 70.1276 17.314 70.1276 17.218C70.1276 17.154 70.1056 17.122 70.0616 17.122C70.0096 17.122 69.9356 17.19 69.8396 17.326C69.7436 17.458 69.6476 17.634 69.5516 17.854C69.4556 18.074 69.3776 18.306 69.3176 18.55C69.2416 18.87 69.0536 19.03 68.7536 19.03C68.6336 19.03 68.5536 18.988 68.5136 18.904C68.4776 18.816 68.4596 18.66 68.4596 18.436C68.4596 18.308 68.4616 18.206 68.4656 18.13L68.4716 17.65C68.4716 17.034 68.5336 16.392 68.6576 15.724C68.7856 15.056 68.9716 14.496 69.2156 14.044C69.4636 13.588 69.7596 13.36 70.1036 13.36C70.2876 13.36 70.4356 13.44 70.5476 13.6C70.6636 13.756 70.7216 13.96 70.7216 14.212C70.7216 14.616 70.6036 15.036 70.3676 15.472C70.1316 15.904 69.7476 16.41 69.2156 16.99C69.2036 17.198 69.1976 17.412 69.1976 17.632C69.3296 17.292 69.4756 17.016 69.6356 16.804C69.7996 16.588 69.9596 16.434 70.1156 16.342C70.2756 16.25 70.4216 16.204 70.5536 16.204C70.8136 16.204 70.9436 16.334 70.9436 16.594C70.9436 16.75 70.8996 17.032 70.8116 17.44C70.7356 17.788 70.6976 18.018 70.6976 18.13C70.6976 18.29 70.7556 18.37 70.8716 18.37C70.9516 18.37 71.0456 18.322 71.1536 18.226C71.2656 18.126 71.4136 17.966 71.5976 17.746C71.6456 17.69 71.6996 17.662 71.7596 17.662ZM69.9776 13.954C69.9056 13.954 69.8256 14.058 69.7376 14.266C69.6496 14.47 69.5636 14.748 69.4796 15.1C69.3996 15.448 69.3336 15.828 69.2816 16.24C69.5296 15.948 69.7336 15.63 69.8936 15.286C70.0576 14.942 70.1396 14.63 70.1396 14.35C70.1396 14.222 70.1256 14.124 70.0976 14.056C70.0696 13.988 70.0296 13.954 69.9776 13.954ZM72.1313 19.03C71.9033 19.03 71.7173 18.94 71.5733 18.76C71.4333 18.58 71.3633 18.344 71.3633 18.052C71.3633 17.732 71.4373 17.43 71.5853 17.146C71.7333 16.858 71.9293 16.628 72.1733 16.456C72.4213 16.28 72.6833 16.192 72.9593 16.192C73.0473 16.192 73.1053 16.21 73.1333 16.246C73.1653 16.278 73.1913 16.338 73.2113 16.426C73.2873 16.41 73.3713 16.402 73.4633 16.402C73.5593 16.402 73.6333 16.426 73.6853 16.474C73.7373 16.522 73.7633 16.59 73.7633 16.678C73.7633 16.77 73.7433 16.93 73.7033 17.158C73.6593 17.402 73.6253 17.636 73.6013 17.86C73.5773 18.08 73.5653 18.328 73.5653 18.604C73.5653 18.756 73.5333 18.866 73.4693 18.934C73.4093 18.998 73.3093 19.03 73.1693 19.03C73.0333 19.03 72.9313 18.998 72.8633 18.934C72.7993 18.866 72.7673 18.758 72.7673 18.61L72.7733 18.514C72.6493 18.858 72.4353 19.03 72.1313 19.03ZM72.3653 18.424C72.4773 18.424 72.5793 18.346 72.6713 18.19C72.7633 18.034 72.8453 17.756 72.9173 17.356L73.0313 16.75C72.8673 16.754 72.7153 16.818 72.5753 16.942C72.4353 17.062 72.3233 17.222 72.2393 17.422C72.1553 17.622 72.1133 17.834 72.1133 18.058C72.1133 18.178 72.1353 18.27 72.1793 18.334C72.2273 18.394 72.2893 18.424 72.3653 18.424Z" fill="#212121"/>
</svg>
