<svg width="156" height="18" viewBox="0 0 156 18" fill="none" xmlns="http://www.w3.org/2000/svg">
<path d="M0.113249 9.5L3 12.3868L5.88675 9.5L3 6.61325L0.113249 9.5ZM155.887 9.5L153 6.61325L150.113 9.5L153 12.3868L155.887 9.5ZM3 10H153V9H3V10Z" fill="#2C2C54"/>
<rect x="46" y="1" width="64" height="16" fill="#F5F6FA"/>
<path d="M62.41 4.7C62.6167 4.74 62.77 4.81 62.87 4.91C62.9767 5.01 63.03 5.12667 63.03 5.26C63.03 5.48 62.9667 5.64 62.84 5.74C62.72 5.84 62.5267 5.88 62.26 5.86C61.66 5.81333 61.19 5.78333 60.85 5.77C60.5167 5.75 60.0767 5.73667 59.53 5.73C59.2833 6.95667 59.0567 8.19 58.85 9.43C58.7767 9.88333 58.7 10.41 58.62 11.01C58.54 11.6033 58.4867 12.0833 58.46 12.45C58.4467 12.6433 58.3667 12.7933 58.22 12.9C58.0733 13 57.8967 13.05 57.69 13.05C57.47 13.05 57.3 12.9967 57.18 12.89C57.06 12.7833 57 12.6433 57 12.47C57 12.31 57.0233 12.0467 57.07 11.68C57.1233 11.3067 57.1833 10.9167 57.25 10.51C57.3233 10.1033 57.38 9.75 57.42 9.45C57.4933 8.94333 57.5767 8.44 57.67 7.94C57.7633 7.44 57.8567 6.96667 57.95 6.52C57.97 6.42 57.9933 6.30667 58.02 6.18C58.0467 6.04667 58.0767 5.9 58.11 5.74C57.4567 5.76 56.9433 5.81333 56.57 5.9C56.1967 5.98667 55.93 6.11 55.77 6.27C55.6167 6.42333 55.54 6.62333 55.54 6.87C55.54 7.09667 55.6067 7.31333 55.74 7.52C55.7667 7.56667 55.78 7.61667 55.78 7.67C55.78 7.79667 55.7033 7.91667 55.55 8.03C55.4033 8.13667 55.25 8.19 55.09 8.19C54.9767 8.19 54.8833 8.15667 54.81 8.09C54.6767 7.97667 54.5667 7.81667 54.48 7.61C54.3933 7.39667 54.35 7.15667 54.35 6.89C54.35 6.32333 54.5333 5.87 54.9 5.53C55.2733 5.18333 55.8367 4.93 56.59 4.77C57.35 4.61 58.3233 4.53 59.51 4.53C60.2433 4.53 60.8267 4.54333 61.26 4.57C61.7 4.59667 62.0833 4.64 62.41 4.7ZM67.0027 10.77C67.0893 10.77 67.156 10.81 67.2027 10.89C67.256 10.97 67.2827 11.08 67.2827 11.22C67.2827 11.4867 67.2193 11.6933 67.0927 11.84C66.786 12.1933 66.4693 12.4833 66.1427 12.71C65.8227 12.9367 65.456 13.05 65.0427 13.05C64.7027 13.05 64.446 12.9533 64.2727 12.76C64.0993 12.56 64.0127 12.2733 64.0127 11.9C64.0127 11.7133 64.0593 11.38 64.1527 10.9C64.2393 10.48 64.2827 10.19 64.2827 10.03C64.2827 9.92333 64.246 9.87 64.1727 9.87C64.086 9.87 63.9627 9.98333 63.8027 10.21C63.6427 10.43 63.4827 10.7233 63.3227 11.09C63.1627 11.4567 63.0327 11.8433 62.9327 12.25C62.806 12.7833 62.4927 13.05 61.9927 13.05C61.7927 13.05 61.6593 12.98 61.5927 12.84C61.5327 12.6933 61.5027 12.4333 61.5027 12.06C61.5027 11.8467 61.506 11.6767 61.5127 11.55L61.5227 10.75C61.5227 9.72333 61.626 8.65333 61.8327 7.54C62.046 6.42667 62.356 5.49333 62.7627 4.74C63.176 3.98 63.6693 3.6 64.2427 3.6C64.5493 3.6 64.796 3.73333 64.9827 4C65.176 4.26 65.2727 4.6 65.2727 5.02C65.2727 5.69333 65.076 6.39333 64.6827 7.12C64.2893 7.84 63.6493 8.68333 62.7627 9.65C62.7427 9.99667 62.7327 10.3533 62.7327 10.72C62.9527 10.1533 63.196 9.69333 63.4627 9.34C63.736 8.98 64.0027 8.72333 64.2627 8.57C64.5293 8.41667 64.7727 8.34 64.9927 8.34C65.426 8.34 65.6427 8.55667 65.6427 8.99C65.6427 9.25 65.5693 9.72 65.4227 10.4C65.296 10.98 65.2327 11.3633 65.2327 11.55C65.2327 11.8167 65.3293 11.95 65.5227 11.95C65.656 11.95 65.8127 11.87 65.9927 11.71C66.1793 11.5433 66.426 11.2767 66.7327 10.91C66.8127 10.8167 66.9027 10.77 67.0027 10.77ZM64.0327 4.59C63.9127 4.59 63.7793 4.76333 63.6327 5.11C63.486 5.45 63.3427 5.91333 63.2027 6.5C63.0693 7.08 62.9593 7.71333 62.8727 8.4C63.286 7.91333 63.626 7.38333 63.8927 6.81C64.166 6.23667 64.3027 5.71667 64.3027 5.25C64.3027 5.03667 64.2793 4.87333 64.2327 4.76C64.186 4.64667 64.1193 4.59 64.0327 4.59ZM67.7022 13.05C67.2889 13.05 66.9589 12.9 66.7122 12.6C66.4655 12.3 66.3422 11.9067 66.3422 11.42C66.3422 10.8867 66.4655 10.3833 66.7122 9.91C66.9589 9.43 67.2855 9.04667 67.6922 8.76C68.1055 8.46667 68.5422 8.32 69.0022 8.32C69.1489 8.32 69.2455 8.35 69.2922 8.41C69.3455 8.46333 69.3889 8.56333 69.4222 8.71C69.5622 8.68333 69.7089 8.67 69.8622 8.67C70.1889 8.67 70.3522 8.78667 70.3522 9.02C70.3522 9.16 70.3022 9.49333 70.2022 10.02C70.0489 10.7867 69.9722 11.32 69.9722 11.62C69.9722 11.72 69.9955 11.8 70.0422 11.86C70.0955 11.92 70.1622 11.95 70.2422 11.95C70.3689 11.95 70.5222 11.87 70.7022 11.71C70.8822 11.5433 71.1255 11.2767 71.4322 10.91C71.5122 10.8167 71.6022 10.77 71.7022 10.77C71.7889 10.77 71.8555 10.81 71.9022 10.89C71.9555 10.97 71.9822 11.08 71.9822 11.22C71.9822 11.4867 71.9189 11.6933 71.7922 11.84C71.5189 12.18 71.2289 12.4667 70.9222 12.7C70.6155 12.9333 70.3189 13.05 70.0322 13.05C69.8122 13.05 69.6089 12.9767 69.4222 12.83C69.2422 12.6767 69.1055 12.47 69.0122 12.21C68.6655 12.77 68.2289 13.05 67.7022 13.05ZM68.0622 12.04C68.2089 12.04 68.3489 11.9533 68.4822 11.78C68.6155 11.6067 68.7122 11.3767 68.7722 11.09L69.1422 9.25C68.8622 9.25667 68.6022 9.36333 68.3622 9.57C68.1289 9.77 67.9422 10.0367 67.8022 10.37C67.6622 10.7033 67.5922 11.0567 67.5922 11.43C67.5922 11.6367 67.6322 11.79 67.7122 11.89C67.7989 11.99 67.9155 12.04 68.0622 12.04ZM71.8795 13.05C71.6261 13.05 71.4461 12.9167 71.3395 12.65C71.2395 12.3833 71.1895 11.9567 71.1895 11.37C71.1895 10.5033 71.3128 9.68 71.5595 8.9C71.6195 8.70667 71.7161 8.56667 71.8495 8.48C71.9895 8.38667 72.1828 8.34 72.4295 8.34C72.5628 8.34 72.6561 8.35667 72.7095 8.39C72.7628 8.42333 72.7895 8.48667 72.7895 8.58C72.7895 8.68667 72.7395 8.92667 72.6395 9.3C72.5728 9.56667 72.5195 9.8 72.4795 10C72.4395 10.2 72.4061 10.4467 72.3795 10.74C72.5995 10.1667 72.8461 9.7 73.1195 9.34C73.3928 8.98 73.6595 8.72333 73.9195 8.57C74.1861 8.41667 74.4295 8.34 74.6495 8.34C75.0828 8.34 75.2995 8.55667 75.2995 8.99C75.2995 9.25 75.2261 9.72 75.0795 10.4C74.9528 10.98 74.8895 11.3633 74.8895 11.55C74.8895 11.8167 74.9861 11.95 75.1795 11.95C75.3128 11.95 75.4695 11.87 75.6495 11.71C75.8361 11.5433 76.0828 11.2767 76.3895 10.91C76.4695 10.8167 76.5595 10.77 76.6595 10.77C76.7461 10.77 76.8128 10.81 76.8595 10.89C76.9128 10.97 76.9395 11.08 76.9395 11.22C76.9395 11.4867 76.8761 11.6933 76.7495 11.84C76.4628 12.1933 76.1528 12.4833 75.8195 12.71C75.4928 12.9367 75.1195 13.05 74.6995 13.05C74.3595 13.05 74.1028 12.9533 73.9295 12.76C73.7561 12.56 73.6695 12.2733 73.6695 11.9C73.6695 11.7133 73.7161 11.38 73.8095 10.9C73.8961 10.48 73.9395 10.19 73.9395 10.03C73.9395 9.92333 73.9028 9.87 73.8295 9.87C73.7428 9.87 73.6195 9.98333 73.4595 10.21C73.3061 10.43 73.1461 10.7233 72.9795 11.09C72.8195 11.4567 72.6895 11.8433 72.5895 12.25C72.5161 12.5633 72.4295 12.7767 72.3295 12.89C72.2361 12.9967 72.0861 13.05 71.8795 13.05ZM80.3804 11.96C80.6537 12.0133 80.7904 12.1633 80.7904 12.41C80.7904 12.5767 80.7137 12.7267 80.5604 12.86C80.4137 12.9867 80.2004 13.05 79.9204 13.05C79.4404 13.05 79.0471 12.9033 78.7404 12.61C78.4404 12.31 78.2904 11.92 78.2904 11.44C78.2904 11.18 78.4237 10.9933 78.6904 10.88C78.9837 10.7533 79.1937 10.62 79.3204 10.48C79.4471 10.3333 79.5104 10.1567 79.5104 9.95C79.5104 9.83 79.4837 9.74 79.4304 9.68C79.3837 9.62 79.3237 9.59 79.2504 9.59C79.0704 9.59 78.8704 9.72 78.6504 9.98C78.4371 10.24 78.2371 10.5767 78.0504 10.99C77.8637 11.3967 77.7171 11.8167 77.6104 12.25C77.5371 12.5633 77.4504 12.7767 77.3504 12.89C77.2571 12.9967 77.1071 13.05 76.9004 13.05C76.6937 13.05 76.5404 12.9767 76.4404 12.83C76.3471 12.6767 76.2837 12.4433 76.2504 12.13C76.2171 11.8167 76.2004 11.3567 76.2004 10.75C76.2004 9.72333 76.3037 8.65333 76.5104 7.54C76.7237 6.42667 77.0337 5.49333 77.4404 4.74C77.8537 3.98 78.3471 3.6 78.9204 3.6C79.2271 3.6 79.4737 3.73333 79.6604 4C79.8537 4.26 79.9504 4.6 79.9504 5.02C79.9504 5.69333 79.7537 6.39333 79.3604 7.12C78.9671 7.84 78.3271 8.68333 77.4404 9.65C77.4204 9.99667 77.4104 10.3533 77.4104 10.72C77.7304 9.88667 78.0971 9.28333 78.5104 8.91C78.9237 8.53 79.3104 8.34 79.6704 8.34C80.0037 8.34 80.2704 8.45333 80.4704 8.68C80.6771 8.90667 80.7804 9.18667 80.7804 9.52C80.7804 9.88667 80.6871 10.2233 80.5004 10.53C80.3137 10.8367 79.9937 11.11 79.5404 11.35C79.5804 11.55 79.6604 11.69 79.7804 11.77C79.9071 11.8433 80.1071 11.9067 80.3804 11.96ZM78.7104 4.59C78.5904 4.59 78.4571 4.76333 78.3104 5.11C78.1637 5.45 78.0204 5.91333 77.8804 6.5C77.7471 7.08 77.6371 7.71333 77.5504 8.4C77.9637 7.91333 78.3037 7.38333 78.5704 6.81C78.8437 6.23667 78.9804 5.71667 78.9804 5.25C78.9804 5.03667 78.9571 4.87333 78.9104 4.76C78.8637 4.64667 78.7971 4.59 78.7104 4.59ZM92.5917 10.76C92.6317 10.7467 92.6917 10.74 92.7717 10.74C92.9984 10.74 93.1117 10.8867 93.1117 11.18C93.1117 11.34 93.0751 11.4767 93.0017 11.59C92.9351 11.6967 92.8284 11.7633 92.6817 11.79C92.0751 11.9033 91.4784 12.03 90.8917 12.17L90.8617 12.41C90.6751 13.7233 90.3017 14.6933 89.7417 15.32C89.1884 15.9533 88.4951 16.27 87.6617 16.27C87.1084 16.27 86.6784 16.1333 86.3717 15.86C86.0717 15.5933 85.9217 15.25 85.9217 14.83C85.9217 14.13 86.2351 13.5067 86.8617 12.96C87.4884 12.4133 88.4384 11.93 89.7117 11.51L89.9117 10.1C89.9384 9.94 89.9717 9.72667 90.0117 9.46C89.6984 10.2867 89.2984 10.9033 88.8117 11.31C88.3251 11.7167 87.7817 11.92 87.1817 11.92C86.6084 11.92 86.1717 11.7467 85.8717 11.4C85.5717 11.0467 85.4217 10.5933 85.4217 10.04C85.4217 9.79333 85.4484 9.52333 85.5017 9.23C85.5551 8.93 85.6384 8.52667 85.7517 8.02C85.8517 7.56 85.9251 7.19333 85.9717 6.92C86.0251 6.64667 86.0517 6.40333 86.0517 6.19C86.0517 5.87 85.9284 5.71 85.6817 5.71C85.4884 5.71 85.2584 5.80667 84.9917 6C84.7317 6.18667 84.4551 6.47667 84.1617 6.87C84.0684 6.99667 83.9651 7.06 83.8517 7.06C83.7584 7.06 83.6751 7.01667 83.6017 6.93C83.5351 6.83667 83.5017 6.73333 83.5017 6.62C83.5017 6.41333 83.5951 6.18 83.7817 5.92C84.4617 4.98667 85.2584 4.52 86.1717 4.52C86.5784 4.52 86.8951 4.64333 87.1217 4.89C87.3551 5.13667 87.4717 5.5 87.4717 5.98C87.4717 6.32667 87.4384 6.68333 87.3717 7.05C87.3117 7.41 87.2184 7.87 87.0917 8.43C87.0117 8.76333 86.9517 9.03333 86.9117 9.24C86.8717 9.44 86.8517 9.60667 86.8517 9.74C86.8517 10.08 86.9117 10.3233 87.0317 10.47C87.1517 10.6167 87.3617 10.69 87.6617 10.69C88.0217 10.69 88.3884 10.4933 88.7617 10.1C89.1417 9.7 89.4817 9.09667 89.7817 8.29C90.0884 7.48333 90.3084 6.49667 90.4417 5.33C90.4751 5.03667 90.5517 4.83 90.6717 4.71C90.7917 4.58333 90.9651 4.52 91.1917 4.52C91.6584 4.52 91.8917 4.75333 91.8917 5.22C91.8917 5.3 91.8884 5.36333 91.8817 5.41C91.7417 6.40333 91.6117 7.3 91.4917 8.1C91.4251 8.58 91.3517 9.07333 91.2717 9.58C91.1984 10.0867 91.1251 10.6 91.0517 11.12C91.5384 10.9867 92.0517 10.8667 92.5917 10.76ZM89.5617 12.56C87.9484 13.12 87.1417 13.8 87.1417 14.6C87.1417 14.7867 87.1984 14.94 87.3117 15.06C87.4317 15.1867 87.5984 15.25 87.8117 15.25C88.7384 15.25 89.3184 14.3767 89.5517 12.63L89.5617 12.56ZM97.5976 9.93C97.6842 9.93 97.7509 9.97333 97.7976 10.06C97.8442 10.1467 97.8676 10.2567 97.8676 10.39C97.8676 10.71 97.7709 10.9 97.5776 10.96C97.1776 11.1 96.7376 11.18 96.2576 11.2C96.1309 11.76 95.8809 12.21 95.5076 12.55C95.1342 12.8833 94.7109 13.05 94.2376 13.05C93.8376 13.05 93.4942 12.9533 93.2076 12.76C92.9276 12.5667 92.7142 12.31 92.5676 11.99C92.4209 11.67 92.3476 11.3233 92.3476 10.95C92.3476 10.4433 92.4442 9.99333 92.6376 9.6C92.8309 9.2 93.0976 8.89 93.4376 8.67C93.7776 8.44333 94.1542 8.33 94.5676 8.33C95.0742 8.33 95.4809 8.50667 95.7876 8.86C96.1009 9.20667 96.2842 9.63667 96.3376 10.15C96.6509 10.13 97.0242 10.0633 97.4576 9.95C97.5109 9.93667 97.5576 9.93 97.5976 9.93ZM94.3176 11.99C94.5309 11.99 94.7142 11.9033 94.8676 11.73C95.0276 11.5567 95.1342 11.3067 95.1876 10.98C94.9809 10.84 94.8209 10.6567 94.7076 10.43C94.6009 10.2033 94.5476 9.96333 94.5476 9.71C94.5476 9.60333 94.5576 9.49667 94.5776 9.39H94.5276C94.2609 9.39 94.0376 9.52 93.8576 9.78C93.6842 10.0333 93.5976 10.3933 93.5976 10.86C93.5976 11.2267 93.6676 11.5067 93.8076 11.7C93.9542 11.8933 94.1242 11.99 94.3176 11.99ZM98.0493 13.05C97.736 13.05 97.4826 12.9233 97.2893 12.67C97.1026 12.41 97.0093 12.0533 97.0093 11.6C97.0093 11.1 97.0426 10.6433 97.1093 10.23C97.176 9.81 97.286 9.36667 97.4393 8.9C97.506 8.7 97.5993 8.55667 97.7193 8.47C97.8393 8.38333 98.0293 8.34 98.2893 8.34C98.436 8.34 98.536 8.36333 98.5893 8.41C98.6493 8.45667 98.6793 8.52667 98.6793 8.62C98.6793 8.67333 98.6426 8.85333 98.5693 9.16C98.5026 9.40667 98.4493 9.63 98.4093 9.83C98.276 10.53 98.2093 10.9967 98.2093 11.23C98.2093 11.37 98.226 11.47 98.2593 11.53C98.2926 11.5833 98.346 11.61 98.4193 11.61C98.5193 11.61 98.646 11.51 98.7993 11.31C98.9526 11.1033 99.1126 10.7967 99.2793 10.39C99.4526 9.97667 99.616 9.48 99.7693 8.9C99.8226 8.7 99.9026 8.55667 100.009 8.47C100.123 8.38333 100.289 8.34 100.509 8.34C100.656 8.34 100.759 8.38 100.819 8.46C100.886 8.53333 100.919 8.64667 100.919 8.8C100.919 8.96667 100.906 9.15333 100.879 9.36C100.853 9.56 100.823 9.76667 100.789 9.98C100.723 10.4067 100.669 10.7967 100.629 11.15C100.589 11.4967 100.569 11.8933 100.569 12.34C100.569 12.5933 100.516 12.7767 100.409 12.89C100.309 12.9967 100.143 13.05 99.9093 13.05C99.6626 13.05 99.4893 12.9867 99.3893 12.86C99.296 12.7267 99.2493 12.4733 99.2493 12.1C99.2493 12.0267 99.256 11.8633 99.2693 11.61C99.156 12.0767 98.986 12.4333 98.7593 12.68C98.5393 12.9267 98.3026 13.05 98.0493 13.05Z" fill="#2C2C54"/>
</svg>
