<svg width="8" height="8" viewBox="0 0 8 8" fill="none" xmlns="http://www.w3.org/2000/svg">
<g clip-path="url(#clip0_3_11)">
<path d="M7 3.33334C7 5.66668 4 7.66668 4 7.66668C4 7.66668 1 5.66668 1 3.33334C1 2.53769 1.31607 1.77463 1.87868 1.21202C2.44129 0.649414 3.20435 0.333344 4 0.333344C4.79565 0.333344 5.55871 0.649414 6.12132 1.21202C6.68393 1.77463 7 2.53769 7 3.33334Z" stroke="#B33939" stroke-width="0.5" stroke-linecap="round" stroke-linejoin="round"/>
<path d="M4 4.33334C4.55228 4.33334 5 3.88563 5 3.33334C5 2.78106 4.55228 2.33334 4 2.33334C3.44772 2.33334 3 2.78106 3 3.33334C3 3.88563 3.44772 4.33334 4 4.33334Z" stroke="#B33939" stroke-width="0.5" stroke-linecap="round" stroke-linejoin="round"/>
</g>
<defs>
<clipPath id="clip0_3_11">
<rect width="8" height="8" fill="white"/>
</clipPath>
</defs>
</svg>
