<svg width="104" height="23" viewBox="0 0 102 23" fill="none" xmlns="http://www.w3.org/2000/svg">
<path d="M1 0.5H101" stroke="#212121" stroke-linecap="round"/>
<path d="M15.446 10.112C14.9873 10.112 14.5446 10.056 14.118 9.944C13.6966 9.82667 13.3526 9.67733 13.086 9.496L13.606 8.328C13.8566 8.488 14.1446 8.62133 14.47 8.728C14.8006 8.82933 15.1286 8.88 15.454 8.88C15.6726 8.88 15.8486 8.86133 15.982 8.824C16.1153 8.78133 16.2113 8.728 16.27 8.664C16.334 8.59467 16.366 8.51467 16.366 8.424C16.366 8.296 16.3073 8.19467 16.19 8.12C16.0726 8.04533 15.9206 7.984 15.734 7.936C15.5473 7.888 15.3393 7.84 15.11 7.792C14.886 7.744 14.6593 7.68267 14.43 7.608C14.206 7.53333 14.0006 7.43733 13.814 7.32C13.6273 7.19733 13.4753 7.04 13.358 6.848C13.2406 6.65067 13.182 6.40267 13.182 6.104C13.182 5.768 13.2726 5.464 13.454 5.192C13.6406 4.92 13.918 4.70133 14.286 4.536C14.654 4.37067 15.1126 4.288 15.662 4.288C16.03 4.288 16.39 4.33067 16.742 4.416C17.0993 4.496 17.4166 4.616 17.694 4.776L17.206 5.952C16.9393 5.808 16.6753 5.70133 16.414 5.632C16.1526 5.55733 15.8993 5.52 15.654 5.52C15.4353 5.52 15.2593 5.544 15.126 5.592C14.9926 5.63467 14.8966 5.69333 14.838 5.768C14.7793 5.84267 14.75 5.928 14.75 6.024C14.75 6.14667 14.806 6.24533 14.918 6.32C15.0353 6.38933 15.1873 6.448 15.374 6.496C15.566 6.53867 15.774 6.584 15.998 6.632C16.2273 6.68 16.454 6.74133 16.678 6.816C16.9073 6.88533 17.1153 6.98133 17.302 7.104C17.4886 7.22133 17.638 7.37867 17.75 7.576C17.8673 7.768 17.926 8.01067 17.926 8.304C17.926 8.62933 17.8326 8.93067 17.646 9.208C17.4646 9.48 17.19 9.69867 16.822 9.864C16.4593 10.0293 16.0006 10.112 15.446 10.112ZM20.8577 10.072C20.3457 10.072 19.8977 9.976 19.5137 9.784C19.135 9.58667 18.839 9.32 18.6257 8.984C18.4177 8.64267 18.3137 8.256 18.3137 7.824C18.3137 7.392 18.415 7.008 18.6177 6.672C18.8257 6.33067 19.111 6.06667 19.4737 5.88C19.8363 5.688 20.2443 5.592 20.6977 5.592C21.1243 5.592 21.5137 5.68 21.8657 5.856C22.2177 6.02667 22.4977 6.28 22.7057 6.616C22.9137 6.952 23.0177 7.36 23.0177 7.84C23.0177 7.89333 23.015 7.95467 23.0097 8.024C23.0043 8.09333 22.999 8.15733 22.9937 8.216H19.5617V7.416H22.1857L21.6097 7.64C21.615 7.44267 21.5777 7.272 21.4977 7.128C21.423 6.984 21.3163 6.872 21.1777 6.792C21.0443 6.712 20.887 6.672 20.7057 6.672C20.5243 6.672 20.3643 6.712 20.2257 6.792C20.0923 6.872 19.9883 6.98667 19.9137 7.136C19.839 7.28 19.8017 7.45067 19.8017 7.648V7.88C19.8017 8.09333 19.8443 8.27733 19.9297 8.432C20.0203 8.58667 20.1483 8.70667 20.3137 8.792C20.479 8.872 20.6763 8.912 20.9057 8.912C21.119 8.912 21.3003 8.88267 21.4497 8.824C21.6043 8.76 21.7563 8.664 21.9057 8.536L22.7057 9.368C22.4977 9.59733 22.2417 9.77333 21.9377 9.896C21.6337 10.0133 21.2737 10.072 20.8577 10.072ZM25.9345 10.072C25.4545 10.072 25.0251 9.976 24.6465 9.784C24.2731 9.592 23.9798 9.328 23.7665 8.992C23.5531 8.65067 23.4465 8.26133 23.4465 7.824C23.4465 7.38667 23.5531 7 23.7665 6.664C23.9798 6.328 24.2731 6.06667 24.6465 5.88C25.0251 5.688 25.4545 5.592 25.9345 5.592C26.4251 5.592 26.8491 5.696 27.2065 5.904C27.5638 6.112 27.8171 6.40533 27.9665 6.784L26.7905 7.384C26.6891 7.18133 26.5638 7.03467 26.4145 6.944C26.2651 6.848 26.1025 6.8 25.9265 6.8C25.7505 6.8 25.5905 6.84 25.4465 6.92C25.3025 7 25.1878 7.11733 25.1025 7.272C25.0225 7.42133 24.9825 7.60533 24.9825 7.824C24.9825 8.048 25.0225 8.23733 25.1025 8.392C25.1878 8.54667 25.3025 8.664 25.4465 8.744C25.5905 8.824 25.7505 8.864 25.9265 8.864C26.1025 8.864 26.2651 8.81867 26.4145 8.728C26.5638 8.632 26.6891 8.48267 26.7905 8.28L27.9665 8.88C27.8171 9.25867 27.5638 9.552 27.2065 9.76C26.8491 9.968 26.4251 10.072 25.9345 10.072ZM28.5388 10V5.664H29.9868V6.928L29.7708 6.568C29.8988 6.24267 30.1068 6 30.3948 5.84C30.6828 5.67467 31.0321 5.592 31.4428 5.592V6.96C31.3734 6.94933 31.3121 6.944 31.2588 6.944C31.2108 6.93867 31.1574 6.936 31.0988 6.936C30.7894 6.936 30.5388 7.02133 30.3468 7.192C30.1548 7.35733 30.0588 7.62933 30.0588 8.008V10H28.5388ZM34.303 10.072C33.791 10.072 33.343 9.976 32.959 9.784C32.5803 9.58667 32.2843 9.32 32.071 8.984C31.863 8.64267 31.759 8.256 31.759 7.824C31.759 7.392 31.8603 7.008 32.063 6.672C32.271 6.33067 32.5563 6.06667 32.919 5.88C33.2816 5.688 33.6896 5.592 34.143 5.592C34.5696 5.592 34.959 5.68 35.311 5.856C35.663 6.02667 35.943 6.28 36.151 6.616C36.359 6.952 36.463 7.36 36.463 7.84C36.463 7.89333 36.4603 7.95467 36.455 8.024C36.4496 8.09333 36.4443 8.15733 36.439 8.216H33.007V7.416H35.631L35.055 7.64C35.0603 7.44267 35.023 7.272 34.943 7.128C34.8683 6.984 34.7616 6.872 34.623 6.792C34.4896 6.712 34.3323 6.672 34.151 6.672C33.9696 6.672 33.8096 6.712 33.671 6.792C33.5376 6.872 33.4336 6.98667 33.359 7.136C33.2843 7.28 33.247 7.45067 33.247 7.648V7.88C33.247 8.09333 33.2896 8.27733 33.375 8.432C33.4656 8.58667 33.5936 8.70667 33.759 8.792C33.9243 8.872 34.1216 8.912 34.351 8.912C34.5643 8.912 34.7456 8.88267 34.895 8.824C35.0496 8.76 35.2016 8.664 35.351 8.536L36.151 9.368C35.943 9.59733 35.687 9.77333 35.383 9.896C35.079 10.0133 34.719 10.072 34.303 10.072ZM39.0998 10.072C38.5451 10.072 38.1131 9.936 37.8038 9.664C37.4944 9.38667 37.3398 8.97067 37.3398 8.416V4.696H38.8598V8.4C38.8598 8.55467 38.9024 8.67733 38.9878 8.768C39.0731 8.85333 39.1824 8.896 39.3158 8.896C39.4971 8.896 39.6518 8.85067 39.7798 8.76L40.1558 9.824C40.0278 9.90933 39.8704 9.97067 39.6838 10.008C39.4971 10.0507 39.3024 10.072 39.0998 10.072ZM36.7078 6.96V5.824H39.8518V6.96H36.7078ZM43.3899 10V9.192L43.2859 8.992V7.504C43.2859 7.264 43.2112 7.08 43.0619 6.952C42.9179 6.81867 42.6859 6.752 42.3659 6.752C42.1579 6.752 41.9472 6.78667 41.7339 6.856C41.5206 6.92 41.3392 7.01067 41.1899 7.128L40.6779 6.096C40.9232 5.936 41.2166 5.81333 41.5579 5.728C41.9046 5.63733 42.2486 5.592 42.5899 5.592C43.2939 5.592 43.8379 5.75467 44.2219 6.08C44.6112 6.4 44.8059 6.904 44.8059 7.592V10H43.3899ZM42.1099 10.072C41.7632 10.072 41.4699 10.0133 41.2299 9.896C40.9899 9.77867 40.8059 9.61867 40.6779 9.416C40.5552 9.21333 40.4939 8.98667 40.4939 8.736C40.4939 8.46933 40.5606 8.24 40.6939 8.048C40.8326 7.85067 41.0432 7.70133 41.3259 7.6C41.6086 7.49333 41.9739 7.44 42.4219 7.44H43.4459V8.232H42.6299C42.3846 8.232 42.2112 8.272 42.1099 8.352C42.0139 8.432 41.9659 8.53867 41.9659 8.672C41.9659 8.80533 42.0166 8.912 42.1179 8.992C42.2192 9.072 42.3579 9.112 42.5339 9.112C42.6992 9.112 42.8486 9.072 42.9819 8.992C43.1206 8.90667 43.2219 8.77867 43.2859 8.608L43.4939 9.168C43.4139 9.46667 43.2566 9.69333 43.0219 9.848C42.7926 9.99733 42.4886 10.072 42.1099 10.072ZM45.7653 10V5.664H47.2133V6.928L46.9973 6.568C47.1253 6.24267 47.3333 6 47.6213 5.84C47.9093 5.67467 48.2587 5.592 48.6693 5.592V6.96C48.6 6.94933 48.5387 6.944 48.4853 6.944C48.4373 6.93867 48.384 6.936 48.3253 6.936C48.016 6.936 47.7653 7.02133 47.5733 7.192C47.3813 7.35733 47.2853 7.62933 47.2853 8.008V10H45.7653ZM50.1734 11.624C49.9441 11.624 49.7121 11.5867 49.4774 11.512C49.2481 11.4427 49.0614 11.3493 48.9174 11.232L49.4454 10.168C49.5361 10.248 49.6401 10.3093 49.7574 10.352C49.8801 10.4 50.0001 10.424 50.1174 10.424C50.2827 10.424 50.4134 10.3867 50.5094 10.312C50.6054 10.2373 50.6881 10.12 50.7574 9.96L50.9574 9.456L51.0774 9.304L52.5494 5.664H53.9974L52.1254 10.176C51.9761 10.5493 51.8027 10.84 51.6054 11.048C51.4134 11.2613 51.1974 11.4107 50.9574 11.496C50.7227 11.5813 50.4614 11.624 50.1734 11.624ZM50.7654 10.184L48.8534 5.664H50.4134L51.8214 9.168L50.7654 10.184ZM59.5905 10.112C59.1478 10.112 58.7371 10.0427 58.3585 9.904C57.9798 9.76 57.6518 9.55733 57.3745 9.296C57.1025 9.03467 56.8891 8.728 56.7345 8.376C56.5798 8.01867 56.5025 7.62667 56.5025 7.2C56.5025 6.77333 56.5798 6.384 56.7345 6.032C56.8891 5.67467 57.1051 5.36533 57.3825 5.104C57.6598 4.84267 57.9878 4.64267 58.3665 4.504C58.7505 4.36 59.1691 4.288 59.6225 4.288C60.1505 4.288 60.6225 4.376 61.0385 4.552C61.4545 4.728 61.7985 4.98133 62.0705 5.312L61.0625 6.224C60.8705 6.016 60.6625 5.86133 60.4385 5.76C60.2198 5.65333 59.9745 5.6 59.7025 5.6C59.4625 5.6 59.2438 5.63733 59.0465 5.712C58.8491 5.78667 58.6811 5.896 58.5425 6.04C58.4038 6.17867 58.2945 6.34667 58.2145 6.544C58.1398 6.736 58.1025 6.95467 58.1025 7.2C58.1025 7.43467 58.1398 7.65067 58.2145 7.848C58.2945 8.04533 58.4038 8.216 58.5425 8.36C58.6811 8.49867 58.8465 8.608 59.0385 8.688C59.2358 8.76267 59.4518 8.8 59.6865 8.8C59.9211 8.8 60.1505 8.76267 60.3745 8.688C60.5985 8.608 60.8251 8.47467 61.0545 8.288L61.9425 9.4C61.6225 9.62933 61.2518 9.80533 60.8305 9.928C60.4091 10.0507 59.9958 10.112 59.5905 10.112ZM60.5425 9.192V7.08H61.9425V9.4L60.5425 9.192ZM65.1467 10.072C64.6347 10.072 64.1867 9.976 63.8027 9.784C63.4241 9.58667 63.1281 9.32 62.9147 8.984C62.7067 8.64267 62.6027 8.256 62.6027 7.824C62.6027 7.392 62.7041 7.008 62.9067 6.672C63.1147 6.33067 63.4001 6.06667 63.7627 5.88C64.1254 5.688 64.5334 5.592 64.9867 5.592C65.4134 5.592 65.8027 5.68 66.1547 5.856C66.5067 6.02667 66.7867 6.28 66.9947 6.616C67.2027 6.952 67.3067 7.36 67.3067 7.84C67.3067 7.89333 67.3041 7.95467 67.2987 8.024C67.2934 8.09333 67.2881 8.15733 67.2827 8.216H63.8507V7.416H66.4747L65.8987 7.64C65.9041 7.44267 65.8667 7.272 65.7867 7.128C65.7121 6.984 65.6054 6.872 65.4667 6.792C65.3334 6.712 65.1761 6.672 64.9947 6.672C64.8134 6.672 64.6534 6.712 64.5147 6.792C64.3814 6.872 64.2774 6.98667 64.2027 7.136C64.1281 7.28 64.0907 7.45067 64.0907 7.648V7.88C64.0907 8.09333 64.1334 8.27733 64.2187 8.432C64.3094 8.58667 64.4374 8.70667 64.6027 8.792C64.7681 8.872 64.9654 8.912 65.1947 8.912C65.4081 8.912 65.5894 8.88267 65.7387 8.824C65.8934 8.76 66.0454 8.664 66.1947 8.536L66.9947 9.368C66.7867 9.59733 66.5307 9.77333 66.2267 9.896C65.9227 10.0133 65.5627 10.072 65.1467 10.072ZM70.8315 5.592C71.1675 5.592 71.4715 5.66133 71.7435 5.8C72.0155 5.93333 72.2289 6.14133 72.3835 6.424C72.5435 6.70667 72.6235 7.072 72.6235 7.52V10H71.1035V7.768C71.1035 7.45867 71.0395 7.23467 70.9115 7.096C70.7889 6.952 70.6155 6.88 70.3915 6.88C70.2315 6.88 70.0849 6.91733 69.9515 6.992C69.8182 7.06133 69.7142 7.17067 69.6395 7.32C69.5649 7.46933 69.5275 7.664 69.5275 7.904V10H68.0075V5.664H69.4555V6.896L69.1755 6.536C69.3409 6.22133 69.5675 5.98667 69.8555 5.832C70.1435 5.672 70.4689 5.592 70.8315 5.592ZM75.9045 10.072C75.3925 10.072 74.9445 9.976 74.5605 9.784C74.1819 9.58667 73.8859 9.32 73.6725 8.984C73.4645 8.64267 73.3605 8.256 73.3605 7.824C73.3605 7.392 73.4619 7.008 73.6645 6.672C73.8725 6.33067 74.1579 6.06667 74.5205 5.88C74.8832 5.688 75.2912 5.592 75.7445 5.592C76.1712 5.592 76.5605 5.68 76.9125 5.856C77.2645 6.02667 77.5445 6.28 77.7525 6.616C77.9605 6.952 78.0645 7.36 78.0645 7.84C78.0645 7.89333 78.0619 7.95467 78.0565 8.024C78.0512 8.09333 78.0459 8.15733 78.0405 8.216H74.6085V7.416H77.2325L76.6565 7.64C76.6619 7.44267 76.6245 7.272 76.5445 7.128C76.4699 6.984 76.3632 6.872 76.2245 6.792C76.0912 6.712 75.9339 6.672 75.7525 6.672C75.5712 6.672 75.4112 6.712 75.2725 6.792C75.1392 6.872 75.0352 6.98667 74.9605 7.136C74.8859 7.28 74.8485 7.45067 74.8485 7.648V7.88C74.8485 8.09333 74.8912 8.27733 74.9765 8.432C75.0672 8.58667 75.1952 8.70667 75.3605 8.792C75.5259 8.872 75.7232 8.912 75.9525 8.912C76.1659 8.912 76.3472 8.88267 76.4965 8.824C76.6512 8.76 76.8032 8.664 76.9525 8.536L77.7525 9.368C77.5445 9.59733 77.2885 9.77333 76.9845 9.896C76.6805 10.0133 76.3205 10.072 75.9045 10.072ZM78.7653 10V5.664H80.2133V6.928L79.9973 6.568C80.1253 6.24267 80.3333 6 80.6213 5.84C80.9093 5.67467 81.2587 5.592 81.6693 5.592V6.96C81.6 6.94933 81.5387 6.944 81.4853 6.944C81.4373 6.93867 81.384 6.936 81.3253 6.936C81.016 6.936 80.7653 7.02133 80.5733 7.192C80.3813 7.35733 80.2853 7.62933 80.2853 8.008V10H78.7653ZM84.6868 10V9.192L84.5828 8.992V7.504C84.5828 7.264 84.5081 7.08 84.3588 6.952C84.2148 6.81867 83.9828 6.752 83.6628 6.752C83.4548 6.752 83.2441 6.78667 83.0308 6.856C82.8174 6.92 82.6361 7.01067 82.4868 7.128L81.9748 6.096C82.2201 5.936 82.5134 5.81333 82.8548 5.728C83.2014 5.63733 83.5454 5.592 83.8868 5.592C84.5908 5.592 85.1348 5.75467 85.5188 6.08C85.9081 6.4 86.1028 6.904 86.1028 7.592V10H84.6868ZM83.4068 10.072C83.0601 10.072 82.7668 10.0133 82.5268 9.896C82.2868 9.77867 82.1028 9.61867 81.9748 9.416C81.8521 9.21333 81.7908 8.98667 81.7908 8.736C81.7908 8.46933 81.8574 8.24 81.9908 8.048C82.1294 7.85067 82.3401 7.70133 82.6228 7.6C82.9054 7.49333 83.2708 7.44 83.7188 7.44H84.7428V8.232H83.9268C83.6814 8.232 83.5081 8.272 83.4068 8.352C83.3108 8.432 83.2628 8.53867 83.2628 8.672C83.2628 8.80533 83.3134 8.912 83.4148 8.992C83.5161 9.072 83.6548 9.112 83.8308 9.112C83.9961 9.112 84.1454 9.072 84.2788 8.992C84.4174 8.90667 84.5188 8.77867 84.5828 8.608L84.7908 9.168C84.7108 9.46667 84.5534 9.69333 84.3188 9.848C84.0894 9.99733 83.7854 10.072 83.4068 10.072ZM87.0622 10V4.064H88.5822V10H87.0622Z" fill="#212121"/>
<path d="M12.918 11H48.5453V11.4H12.918V11ZM52.0406 11H89.0782V11.4H52.0406V11Z" fill="#212121"/>
<path d="M36.541 16.16C36.541 16.5 36.421 16.794 36.181 17.042C35.941 17.286 35.591 17.462 35.131 17.57C35.379 17.638 35.567 17.75 35.695 17.906C35.823 18.058 35.887 18.234 35.887 18.434C35.887 18.75 35.787 19.024 35.587 19.256C35.391 19.488 35.103 19.668 34.723 19.796C34.343 19.92 33.885 19.982 33.349 19.982C33.149 19.982 32.989 19.976 32.869 19.964C32.865 20.076 32.817 20.16 32.725 20.216C32.633 20.272 32.515 20.3 32.371 20.3C32.227 20.3 32.127 20.268 32.071 20.204C32.019 20.14 31.997 20.046 32.005 19.922C32.041 19.362 32.111 18.776 32.215 18.164C32.319 17.548 32.451 16.954 32.611 16.382C32.639 16.282 32.695 16.212 32.779 16.172C32.863 16.132 32.973 16.112 33.109 16.112C33.353 16.112 33.475 16.18 33.475 16.316C33.475 16.372 33.463 16.436 33.439 16.508C33.335 16.82 33.231 17.244 33.127 17.78C33.023 18.312 32.949 18.82 32.905 19.304C33.097 19.32 33.253 19.328 33.373 19.328C33.933 19.328 34.343 19.248 34.603 19.088C34.867 18.924 34.999 18.716 34.999 18.464C34.999 18.288 34.923 18.14 34.771 18.02C34.623 17.9 34.373 17.834 34.021 17.822C33.941 17.818 33.885 17.798 33.853 17.762C33.821 17.726 33.805 17.668 33.805 17.588C33.805 17.472 33.829 17.378 33.877 17.306C33.925 17.234 34.013 17.196 34.141 17.192C34.425 17.184 34.681 17.142 34.909 17.066C35.141 16.99 35.323 16.884 35.455 16.748C35.587 16.608 35.653 16.446 35.653 16.262C35.653 16.03 35.539 15.848 35.311 15.716C35.083 15.58 34.733 15.512 34.261 15.512C33.833 15.512 33.419 15.568 33.019 15.68C32.619 15.788 32.279 15.926 31.999 16.094C31.871 16.17 31.763 16.208 31.675 16.208C31.603 16.208 31.547 16.184 31.507 16.136C31.471 16.084 31.453 16.02 31.453 15.944C31.453 15.844 31.473 15.758 31.513 15.686C31.557 15.614 31.659 15.532 31.819 15.44C32.155 15.248 32.549 15.098 33.001 14.99C33.453 14.882 33.915 14.828 34.387 14.828C35.111 14.828 35.651 14.95 36.007 15.194C36.363 15.438 36.541 15.76 36.541 16.16ZM37.2527 16.808C37.0847 16.808 36.9587 16.77 36.8747 16.694C36.7907 16.614 36.7487 16.504 36.7487 16.364C36.7487 16.224 36.8027 16.108 36.9107 16.016C37.0227 15.92 37.1607 15.872 37.3247 15.872C37.4727 15.872 37.5927 15.908 37.6847 15.98C37.7767 16.052 37.8227 16.154 37.8227 16.286C37.8227 16.446 37.7707 16.574 37.6667 16.67C37.5627 16.762 37.4247 16.808 37.2527 16.808ZM37.2047 20.03C36.9447 20.03 36.7547 19.938 36.6347 19.754C36.5187 19.57 36.4607 19.326 36.4607 19.022C36.4607 18.842 36.4827 18.612 36.5267 18.332C36.5747 18.048 36.6347 17.784 36.7067 17.54C36.7427 17.412 36.7907 17.324 36.8507 17.276C36.9107 17.228 37.0067 17.204 37.1387 17.204C37.3427 17.204 37.4447 17.272 37.4447 17.408C37.4447 17.508 37.4067 17.74 37.3307 18.104C37.2347 18.544 37.1867 18.842 37.1867 18.998C37.1867 19.118 37.2027 19.21 37.2347 19.274C37.2667 19.338 37.3207 19.37 37.3967 19.37C37.4687 19.37 37.5587 19.32 37.6667 19.22C37.7747 19.12 37.9187 18.962 38.0987 18.746C38.1467 18.69 38.2007 18.662 38.2607 18.662C38.3127 18.662 38.3527 18.686 38.3807 18.734C38.4127 18.782 38.4287 18.848 38.4287 18.932C38.4287 19.092 38.3907 19.216 38.3147 19.304C37.9187 19.788 37.5487 20.03 37.2047 20.03ZM38.3693 20.03C38.2173 20.03 38.1093 19.95 38.0453 19.79C37.9853 19.63 37.9553 19.374 37.9553 19.022C37.9553 18.502 38.0293 18.008 38.1773 17.54C38.2133 17.424 38.2713 17.34 38.3513 17.288C38.4353 17.232 38.5513 17.204 38.6993 17.204C38.7793 17.204 38.8353 17.214 38.8673 17.234C38.8993 17.254 38.9153 17.292 38.9153 17.348C38.9153 17.412 38.8853 17.556 38.8253 17.78C38.7853 17.94 38.7533 18.08 38.7293 18.2C38.7053 18.32 38.6853 18.468 38.6693 18.644C38.8013 18.3 38.9493 18.02 39.1133 17.804C39.2773 17.588 39.4373 17.434 39.5933 17.342C39.7533 17.25 39.8993 17.204 40.0313 17.204C40.2913 17.204 40.4213 17.334 40.4213 17.594C40.4213 17.646 40.4033 17.772 40.3673 17.972C40.3353 18.132 40.3193 18.232 40.3193 18.272C40.3193 18.412 40.3693 18.482 40.4693 18.482C40.5813 18.482 40.7253 18.394 40.9013 18.218C40.9533 18.166 41.0073 18.14 41.0633 18.14C41.1153 18.14 41.1553 18.164 41.1833 18.212C41.2153 18.256 41.2313 18.316 41.2313 18.392C41.2313 18.54 41.1913 18.656 41.1113 18.74C40.9993 18.856 40.8673 18.956 40.7153 19.04C40.5673 19.12 40.4093 19.16 40.2413 19.16C40.0293 19.16 39.8673 19.106 39.7553 18.998C39.6473 18.89 39.5933 18.744 39.5933 18.56C39.5933 18.5 39.5993 18.44 39.6113 18.38C39.6193 18.3 39.6233 18.246 39.6233 18.218C39.6233 18.154 39.6013 18.122 39.5573 18.122C39.4973 18.122 39.4173 18.19 39.3173 18.326C39.2213 18.458 39.1253 18.634 39.0293 18.854C38.9333 19.074 38.8553 19.306 38.7953 19.55C38.7513 19.738 38.6993 19.866 38.6393 19.934C38.5833 19.998 38.4933 20.03 38.3693 20.03ZM43.7337 18.158C43.7857 18.158 43.8257 18.184 43.8537 18.236C43.8817 18.288 43.8957 18.354 43.8957 18.434C43.8957 18.626 43.8377 18.74 43.7217 18.776C43.4817 18.86 43.2177 18.908 42.9297 18.92C42.8537 19.256 42.7037 19.526 42.4797 19.73C42.2557 19.93 42.0017 20.03 41.7177 20.03C41.4777 20.03 41.2717 19.972 41.0997 19.856C40.9317 19.74 40.8037 19.586 40.7157 19.394C40.6277 19.202 40.5837 18.994 40.5837 18.77C40.5837 18.466 40.6417 18.196 40.7577 17.96C40.8737 17.72 41.0337 17.534 41.2377 17.402C41.4417 17.266 41.6677 17.198 41.9157 17.198C42.2197 17.198 42.4637 17.304 42.6477 17.516C42.8357 17.724 42.9457 17.982 42.9777 18.29C43.1657 18.278 43.3897 18.238 43.6497 18.17C43.6817 18.162 43.7097 18.158 43.7337 18.158ZM41.7657 19.394C41.8937 19.394 42.0037 19.342 42.0957 19.238C42.1917 19.134 42.2557 18.984 42.2877 18.788C42.1637 18.704 42.0677 18.594 41.9997 18.458C41.9357 18.322 41.9037 18.178 41.9037 18.026C41.9037 17.962 41.9097 17.898 41.9217 17.834H41.8917C41.7317 17.834 41.5977 17.912 41.4897 18.068C41.3857 18.22 41.3337 18.436 41.3337 18.716C41.3337 18.936 41.3757 19.104 41.4597 19.22C41.5477 19.336 41.6497 19.394 41.7657 19.394ZM44.1248 15.872C44.2728 15.872 44.3928 15.908 44.4848 15.98C44.5768 16.052 44.6228 16.154 44.6228 16.286C44.6228 16.446 44.5708 16.574 44.4668 16.67C44.3628 16.762 44.2248 16.808 44.0528 16.808C43.8848 16.808 43.7588 16.77 43.6748 16.694C43.5908 16.614 43.5488 16.504 43.5488 16.364C43.5488 16.224 43.6028 16.108 43.7108 16.016C43.8228 15.92 43.9608 15.872 44.1248 15.872ZM44.0528 17.204C44.1728 17.204 44.2508 17.222 44.2868 17.258C44.3268 17.294 44.3468 17.344 44.3468 17.408C44.3468 17.58 44.2848 18.07 44.1608 18.878C44.1448 18.974 44.1188 19.144 44.0828 19.388C43.9348 20.412 43.7288 21.224 43.4648 21.824C43.2008 22.428 42.8528 22.73 42.4208 22.73C42.2128 22.73 42.0468 22.666 41.9228 22.538C41.7948 22.414 41.7308 22.25 41.7308 22.046C41.7308 21.762 41.8408 21.458 42.0608 21.134C42.2808 20.814 42.6948 20.418 43.3028 19.946L43.3448 19.64C43.4008 19.256 43.4448 18.878 43.4768 18.506C43.5008 18.29 43.5388 17.968 43.5908 17.54C43.6068 17.424 43.6508 17.34 43.7228 17.288C43.7948 17.232 43.9048 17.204 44.0528 17.204ZM42.4868 22.148C42.5908 22.148 42.7048 22.03 42.8288 21.794C42.9528 21.558 43.0688 21.178 43.1768 20.654C42.8728 20.914 42.6548 21.148 42.5228 21.356C42.3868 21.568 42.3188 21.754 42.3188 21.914C42.3188 22.07 42.3748 22.148 42.4868 22.148ZM52.2798 18.662C52.3318 18.662 52.3718 18.686 52.3998 18.734C52.4318 18.782 52.4478 18.848 52.4478 18.932C52.4478 19.088 52.4098 19.212 52.3338 19.304C52.1418 19.536 51.9478 19.716 51.7518 19.844C51.5558 19.968 51.3238 20.03 51.0558 20.03C50.7598 20.03 50.5178 19.944 50.3298 19.772C50.1418 19.596 49.9658 19.324 49.8018 18.956C49.6818 18.692 49.5818 18.496 49.5018 18.368C49.4258 18.236 49.3498 18.144 49.2738 18.092C49.1978 18.036 49.1018 18.002 48.9858 17.99L48.9198 18.434C48.8358 19.006 48.6718 19.418 48.4278 19.67C48.1878 19.922 47.8558 20.048 47.4318 20.048C47.1558 20.048 46.9098 19.982 46.6938 19.85C46.4818 19.714 46.3338 19.542 46.2498 19.334C46.2218 19.262 46.2078 19.184 46.2078 19.1C46.2078 18.98 46.2358 18.876 46.2918 18.788C46.3478 18.7 46.4198 18.656 46.5078 18.656C46.5598 18.656 46.6038 18.67 46.6398 18.698C46.6758 18.722 46.7098 18.766 46.7418 18.83C46.8658 19.062 46.9738 19.224 47.0658 19.316C47.1618 19.408 47.2798 19.454 47.4198 19.454C47.5798 19.454 47.7158 19.382 47.8278 19.238C47.9438 19.09 48.0258 18.864 48.0738 18.56L48.1578 17.99H48.0618C47.9698 17.99 47.8978 17.964 47.8458 17.912C47.7938 17.86 47.7678 17.788 47.7678 17.696C47.7678 17.592 47.7938 17.51 47.8458 17.45C47.9018 17.386 47.9698 17.354 48.0498 17.354H48.2478C48.2758 17.158 48.2958 17.022 48.3078 16.946L48.4938 15.596C48.3898 15.584 48.2918 15.578 48.1998 15.578C47.8598 15.578 47.6018 15.638 47.4258 15.758C47.2498 15.874 47.1618 16.042 47.1618 16.262C47.1618 16.362 47.1718 16.444 47.1918 16.508C47.2158 16.568 47.2458 16.636 47.2818 16.712C47.2978 16.744 47.3058 16.78 47.3058 16.82C47.3058 16.908 47.2638 16.986 47.1798 17.054C47.0998 17.118 47.0098 17.15 46.9098 17.15C46.7818 17.15 46.6878 17.094 46.6278 16.982C46.5078 16.77 46.4478 16.542 46.4478 16.298C46.4478 16.046 46.5158 15.816 46.6518 15.608C46.7918 15.4 47.0018 15.234 47.2818 15.11C47.5618 14.982 47.9078 14.918 48.3198 14.918C48.4998 14.918 48.6638 14.928 48.8118 14.948C48.9638 14.968 49.1298 15.006 49.3098 15.062C49.5058 15.122 49.6038 15.234 49.6038 15.398C49.6038 15.618 49.5098 15.728 49.3218 15.728L49.0878 17.342C49.5558 17.294 49.9358 17.094 50.2278 16.742C50.5238 16.386 50.7698 15.904 50.9658 15.296C51.0018 15.184 51.0618 15.098 51.1458 15.038C51.2338 14.978 51.3438 14.948 51.4758 14.948C51.5878 14.948 51.6738 14.974 51.7338 15.026C51.7978 15.074 51.8298 15.144 51.8298 15.236C51.8298 15.264 51.8218 15.31 51.8058 15.374C51.6058 16.034 51.3198 16.558 50.9478 16.946C50.5758 17.334 50.1698 17.592 49.7298 17.72C49.8818 17.756 50.0058 17.81 50.1018 17.882C50.2018 17.954 50.2858 18.044 50.3538 18.152C50.4218 18.256 50.4998 18.402 50.5878 18.59C50.7118 18.854 50.8278 19.042 50.9358 19.154C51.0438 19.262 51.1698 19.316 51.3138 19.316C51.4418 19.316 51.5638 19.274 51.6798 19.19C51.7958 19.102 51.9418 18.954 52.1178 18.746C52.1658 18.69 52.2198 18.662 52.2798 18.662ZM52.5797 20.03C52.3317 20.03 52.1337 19.94 51.9857 19.76C51.8377 19.58 51.7637 19.344 51.7637 19.052C51.7637 18.732 51.8377 18.43 51.9857 18.146C52.1337 17.858 52.3297 17.628 52.5737 17.456C52.8217 17.28 53.0837 17.192 53.3597 17.192C53.4477 17.192 53.5057 17.21 53.5337 17.246C53.5657 17.278 53.5917 17.338 53.6117 17.426C53.6957 17.41 53.7837 17.402 53.8757 17.402C54.0717 17.402 54.1697 17.472 54.1697 17.612C54.1697 17.696 54.1397 17.896 54.0797 18.212C53.9877 18.672 53.9417 18.992 53.9417 19.172C53.9417 19.232 53.9557 19.28 53.9837 19.316C54.0157 19.352 54.0557 19.37 54.1037 19.37C54.1797 19.37 54.2717 19.322 54.3797 19.226C54.4877 19.126 54.6337 18.966 54.8177 18.746C54.8657 18.69 54.9197 18.662 54.9797 18.662C55.0317 18.662 55.0717 18.686 55.0997 18.734C55.1317 18.782 55.1477 18.848 55.1477 18.932C55.1477 19.092 55.1097 19.216 55.0337 19.304C54.8697 19.508 54.6957 19.68 54.5117 19.82C54.3277 19.96 54.1497 20.03 53.9777 20.03C53.8457 20.03 53.7237 19.986 53.6117 19.898C53.5037 19.806 53.4217 19.682 53.3657 19.526C53.1577 19.862 52.8957 20.03 52.5797 20.03ZM52.7957 19.424C52.8837 19.424 52.9677 19.372 53.0477 19.268C53.1277 19.164 53.1857 19.026 53.2217 18.854L53.4437 17.75C53.2757 17.754 53.1197 17.818 52.9757 17.942C52.8357 18.062 52.7237 18.222 52.6397 18.422C52.5557 18.622 52.5137 18.834 52.5137 19.058C52.5137 19.182 52.5377 19.274 52.5857 19.334C52.6377 19.394 52.7077 19.424 52.7957 19.424ZM57.3361 18.662C57.3881 18.662 57.4281 18.686 57.4561 18.734C57.4881 18.782 57.5041 18.848 57.5041 18.932C57.5041 19.092 57.4661 19.216 57.3901 19.304C57.2181 19.516 57.0301 19.69 56.8261 19.826C56.6221 19.962 56.3881 20.03 56.1241 20.03C55.3081 20.03 54.9001 19.456 54.9001 18.308C54.9001 18.132 54.9061 17.954 54.9181 17.774H54.6841C54.5641 17.774 54.4821 17.752 54.4381 17.708C54.3981 17.664 54.3781 17.594 54.3781 17.498C54.3781 17.274 54.4681 17.162 54.6481 17.162H54.9901C55.0581 16.722 55.1621 16.32 55.3021 15.956C55.4421 15.592 55.6101 15.302 55.8061 15.086C56.0061 14.87 56.2201 14.762 56.4481 14.762C56.6161 14.762 56.7481 14.836 56.8441 14.984C56.9401 15.132 56.9881 15.318 56.9881 15.542C56.9881 16.162 56.7281 16.702 56.2081 17.162H56.8801C56.9441 17.162 56.9901 17.176 57.0181 17.204C57.0461 17.232 57.0601 17.284 57.0601 17.36C57.0601 17.636 56.8341 17.774 56.3821 17.774H55.6501C55.6421 17.974 55.6381 18.13 55.6381 18.242C55.6381 18.658 55.6861 18.95 55.7821 19.118C55.8821 19.286 56.0381 19.37 56.2501 19.37C56.4221 19.37 56.5741 19.318 56.7061 19.214C56.8381 19.11 56.9941 18.954 57.1741 18.746C57.2221 18.69 57.2761 18.662 57.3361 18.662ZM56.2861 15.338C56.2261 15.338 56.1581 15.414 56.0821 15.566C56.0101 15.714 55.9401 15.922 55.8721 16.19C55.8081 16.454 55.7541 16.748 55.7101 17.072C55.9461 16.868 56.1221 16.64 56.2381 16.388C56.3581 16.132 56.4181 15.9 56.4181 15.692C56.4181 15.456 56.3741 15.338 56.2861 15.338ZM60.3455 18.662C60.3975 18.662 60.4375 18.686 60.4655 18.734C60.4975 18.782 60.5135 18.848 60.5135 18.932C60.5135 19.092 60.4755 19.216 60.3995 19.304C60.2155 19.516 60.0255 19.69 59.8295 19.826C59.6375 19.962 59.4175 20.03 59.1695 20.03C58.9655 20.03 58.8115 19.972 58.7075 19.856C58.6035 19.736 58.5515 19.564 58.5515 19.34C58.5515 19.228 58.5795 19.028 58.6355 18.74C58.6875 18.488 58.7135 18.314 58.7135 18.218C58.7135 18.154 58.6915 18.122 58.6475 18.122C58.5955 18.122 58.5215 18.19 58.4255 18.326C58.3295 18.458 58.2335 18.634 58.1375 18.854C58.0415 19.074 57.9635 19.306 57.9035 19.55C57.8275 19.87 57.6395 20.03 57.3395 20.03C57.2195 20.03 57.1395 19.988 57.0995 19.904C57.0635 19.816 57.0455 19.66 57.0455 19.436C57.0455 19.308 57.0475 19.206 57.0515 19.13L57.0575 18.65C57.0575 18.034 57.1195 17.392 57.2435 16.724C57.3715 16.056 57.5575 15.496 57.8015 15.044C58.0495 14.588 58.3455 14.36 58.6895 14.36C58.8735 14.36 59.0215 14.44 59.1335 14.6C59.2495 14.756 59.3075 14.96 59.3075 15.212C59.3075 15.616 59.1895 16.036 58.9535 16.472C58.7175 16.904 58.3335 17.41 57.8015 17.99C57.7895 18.198 57.7835 18.412 57.7835 18.632C57.9155 18.292 58.0615 18.016 58.2215 17.804C58.3855 17.588 58.5455 17.434 58.7015 17.342C58.8615 17.25 59.0075 17.204 59.1395 17.204C59.3995 17.204 59.5295 17.334 59.5295 17.594C59.5295 17.75 59.4855 18.032 59.3975 18.44C59.3215 18.788 59.2835 19.018 59.2835 19.13C59.2835 19.29 59.3415 19.37 59.4575 19.37C59.5375 19.37 59.6315 19.322 59.7395 19.226C59.8515 19.126 59.9995 18.966 60.1835 18.746C60.2315 18.69 60.2855 18.662 60.3455 18.662ZM58.5635 14.954C58.4915 14.954 58.4115 15.058 58.3235 15.266C58.2355 15.47 58.1495 15.748 58.0655 16.1C57.9855 16.448 57.9195 16.828 57.8675 17.24C58.1155 16.948 58.3195 16.63 58.4795 16.286C58.6435 15.942 58.7255 15.63 58.7255 15.35C58.7255 15.222 58.7115 15.124 58.6835 15.056C58.6555 14.988 58.6155 14.954 58.5635 14.954ZM60.7653 20.03C60.5173 20.03 60.3193 19.94 60.1713 19.76C60.0233 19.58 59.9493 19.344 59.9493 19.052C59.9493 18.732 60.0233 18.43 60.1713 18.146C60.3193 17.858 60.5153 17.628 60.7593 17.456C61.0073 17.28 61.2693 17.192 61.5453 17.192C61.6333 17.192 61.6913 17.21 61.7193 17.246C61.7513 17.278 61.7773 17.338 61.7973 17.426C61.8813 17.41 61.9693 17.402 62.0613 17.402C62.2573 17.402 62.3553 17.472 62.3553 17.612C62.3553 17.696 62.3253 17.896 62.2653 18.212C62.1733 18.672 62.1273 18.992 62.1273 19.172C62.1273 19.232 62.1413 19.28 62.1693 19.316C62.2013 19.352 62.2413 19.37 62.2893 19.37C62.3653 19.37 62.4573 19.322 62.5653 19.226C62.6733 19.126 62.8193 18.966 63.0033 18.746C63.0513 18.69 63.1053 18.662 63.1653 18.662C63.2173 18.662 63.2573 18.686 63.2853 18.734C63.3173 18.782 63.3333 18.848 63.3333 18.932C63.3333 19.092 63.2953 19.216 63.2193 19.304C63.0553 19.508 62.8813 19.68 62.6973 19.82C62.5133 19.96 62.3353 20.03 62.1633 20.03C62.0313 20.03 61.9093 19.986 61.7973 19.898C61.6893 19.806 61.6073 19.682 61.5513 19.526C61.3433 19.862 61.0813 20.03 60.7653 20.03ZM60.9813 19.424C61.0693 19.424 61.1533 19.372 61.2333 19.268C61.3133 19.164 61.3713 19.026 61.4073 18.854L61.6293 17.75C61.4613 17.754 61.3053 17.818 61.1613 17.942C61.0213 18.062 60.9093 18.222 60.8253 18.422C60.7413 18.622 60.6993 18.834 60.6993 19.058C60.6993 19.182 60.7233 19.274 60.7713 19.334C60.8233 19.394 60.8933 19.424 60.9813 19.424ZM65.9176 18.674C65.9696 18.674 66.0096 18.7 66.0376 18.752C66.0696 18.8 66.0856 18.862 66.0856 18.938C66.0856 19.03 66.0716 19.102 66.0436 19.154C66.0156 19.206 65.9716 19.252 65.9116 19.292L64.7596 20.066C64.6076 20.894 64.4076 21.544 64.1596 22.016C63.9156 22.492 63.6036 22.73 63.2236 22.73C63.0196 22.73 62.8536 22.666 62.7256 22.538C62.5976 22.414 62.5336 22.25 62.5336 22.046C62.5336 21.858 62.5756 21.666 62.6596 21.47C62.7476 21.274 62.9076 21.048 63.1396 20.792C63.3756 20.54 63.7076 20.25 64.1356 19.922L64.1536 19.784C64.1816 19.636 64.2136 19.424 64.2496 19.148C64.1696 19.436 64.0576 19.656 63.9136 19.808C63.7696 19.956 63.6176 20.03 63.4576 20.03C63.2776 20.03 63.1296 19.948 63.0136 19.784C62.9016 19.616 62.8456 19.408 62.8456 19.16C62.8456 18.86 62.8656 18.586 62.9056 18.338C62.9456 18.086 63.0116 17.82 63.1036 17.54C63.1436 17.42 63.1996 17.334 63.2716 17.282C63.3436 17.23 63.4576 17.204 63.6136 17.204C63.7016 17.204 63.7616 17.218 63.7936 17.246C63.8296 17.274 63.8476 17.316 63.8476 17.372C63.8476 17.404 63.8256 17.512 63.7816 17.696C63.7416 17.844 63.7096 17.978 63.6856 18.098C63.6536 18.262 63.6256 18.42 63.6016 18.572C63.5776 18.72 63.5656 18.842 63.5656 18.938C63.5656 19.09 63.6076 19.166 63.6916 19.166C63.7516 19.166 63.8256 19.106 63.9136 18.986C64.0056 18.866 64.1016 18.684 64.2016 18.44C64.3056 18.196 64.4056 17.896 64.5016 17.54C64.5336 17.42 64.5816 17.334 64.6456 17.282C64.7136 17.23 64.8136 17.204 64.9456 17.204C65.0376 17.204 65.1016 17.216 65.1376 17.24C65.1736 17.264 65.1916 17.304 65.1916 17.36C65.1916 17.46 65.1396 17.804 65.0356 18.392L64.8796 19.358C65.1876 19.126 65.4876 18.914 65.7796 18.722C65.8316 18.69 65.8776 18.674 65.9176 18.674ZM63.2896 22.148C63.3896 22.148 63.5016 22.032 63.6256 21.8C63.7496 21.568 63.8736 21.182 63.9976 20.642C63.6896 20.902 63.4656 21.138 63.3256 21.35C63.1896 21.566 63.1216 21.754 63.1216 21.914C63.1216 21.982 63.1336 22.038 63.1576 22.082C63.1856 22.126 63.2296 22.148 63.2896 22.148ZM66.3961 20.03C66.1481 20.03 65.9501 19.94 65.8021 19.76C65.6541 19.58 65.5801 19.344 65.5801 19.052C65.5801 18.732 65.6541 18.43 65.8021 18.146C65.9501 17.858 66.1461 17.628 66.3901 17.456C66.6381 17.28 66.9001 17.192 67.1761 17.192C67.2641 17.192 67.3221 17.21 67.3501 17.246C67.3821 17.278 67.4081 17.338 67.4281 17.426C67.5121 17.41 67.6001 17.402 67.6921 17.402C67.8881 17.402 67.9861 17.472 67.9861 17.612C67.9861 17.696 67.9561 17.896 67.8961 18.212C67.8041 18.672 67.7581 18.992 67.7581 19.172C67.7581 19.232 67.7721 19.28 67.8001 19.316C67.8321 19.352 67.8721 19.37 67.9201 19.37C67.9961 19.37 68.0881 19.322 68.1961 19.226C68.3041 19.126 68.4501 18.966 68.6341 18.746C68.6821 18.69 68.7361 18.662 68.7961 18.662C68.8481 18.662 68.8881 18.686 68.9161 18.734C68.9481 18.782 68.9641 18.848 68.9641 18.932C68.9641 19.092 68.9261 19.216 68.8501 19.304C68.6861 19.508 68.5121 19.68 68.3281 19.82C68.1441 19.96 67.9661 20.03 67.7941 20.03C67.6621 20.03 67.5401 19.986 67.4281 19.898C67.3201 19.806 67.2381 19.682 67.1821 19.526C66.9741 19.862 66.7121 20.03 66.3961 20.03ZM66.6121 19.424C66.7001 19.424 66.7841 19.372 66.8641 19.268C66.9441 19.164 67.0021 19.026 67.0381 18.854L67.2601 17.75C67.0921 17.754 66.9361 17.818 66.7921 17.942C66.6521 18.062 66.5401 18.222 66.4561 18.422C66.3721 18.622 66.3301 18.834 66.3301 19.058C66.3301 19.182 66.3541 19.274 66.4021 19.334C66.4541 19.394 66.5241 19.424 66.6121 19.424ZM69.4665 17.774C69.4585 17.974 69.4545 18.13 69.4545 18.242C69.4545 18.53 69.4685 18.756 69.4965 18.92C69.5285 19.08 69.5785 19.196 69.6465 19.268C69.7185 19.336 69.8165 19.37 69.9405 19.37C70.0045 19.37 70.0805 19.35 70.1685 19.31C70.2565 19.27 70.3365 19.218 70.4085 19.154C70.4525 19.114 70.4965 19.094 70.5405 19.094C70.5885 19.094 70.6265 19.122 70.6545 19.178C70.6865 19.23 70.7025 19.294 70.7025 19.37C70.7025 19.446 70.6865 19.52 70.6545 19.592C70.6265 19.664 70.5825 19.724 70.5225 19.772C70.3145 19.944 70.0785 20.03 69.8145 20.03C69.4345 20.03 69.1565 19.872 68.9805 19.556C68.8045 19.236 68.7165 18.82 68.7165 18.308C68.7165 18.132 68.7225 17.954 68.7345 17.774H68.5005C68.3805 17.774 68.2985 17.752 68.2545 17.708C68.2145 17.664 68.1945 17.594 68.1945 17.498C68.1945 17.274 68.2845 17.162 68.4645 17.162H68.8065C68.8745 16.722 68.9785 16.32 69.1185 15.956C69.2585 15.592 69.4265 15.302 69.6225 15.086C69.8225 14.87 70.0365 14.762 70.2645 14.762C70.4325 14.762 70.5645 14.836 70.6605 14.984C70.7565 15.132 70.8045 15.318 70.8045 15.542C70.8045 16.162 70.5445 16.702 70.0245 17.162H70.6965C70.7605 17.162 70.8065 17.176 70.8345 17.204C70.8625 17.232 70.8765 17.284 70.8765 17.36C70.8765 17.636 70.6505 17.774 70.1985 17.774H69.4665ZM70.1025 15.338C70.0425 15.338 69.9745 15.414 69.8985 15.566C69.8265 15.714 69.7565 15.922 69.6885 16.19C69.6245 16.454 69.5705 16.748 69.5265 17.072C69.7625 16.868 69.9385 16.64 70.0545 16.388C70.1745 16.132 70.2345 15.9 70.2345 15.692C70.2345 15.456 70.1905 15.338 70.1025 15.338Z" fill="#212121"/>
</svg>
